<svg width="36" height="32" viewBox="0 0 36 32" fill="none" xmlns="http://www.w3.org/2000/svg">
<g clip-path="url(#clip0_1702_2014)">
<path d="M11.6429 31.618V0.38208H24.3488V31.618M11.6429 5.82239H2.69493V31.6104M33.3046 31.618V8.97807H24.3488M35.6147 31.618H0.384766" stroke="#FF833B" stroke-miterlimit="10" stroke-linecap="round" stroke-linejoin="round"/>
<path d="M20.0208 31.6179V27.3237C20.0208 27.0104 19.759 26.7506 19.4432 26.7506H16.5555C16.2398 26.7506 15.978 27.0104 15.978 27.3237V31.6179M19.4432 23.3046H16.5555M19.4432 20.722H16.5555M19.4432 18.147H16.5555M19.4432 15.572H16.5555M19.4432 12.9894H16.5555M19.4432 10.4068H16.5555M19.4432 7.83181H16.5555M19.4432 5.25684H16.5555M8.76259 25.3065H5.86719M8.76259 22.7315H5.86719M8.76259 20.1565H5.86719M8.76259 17.5739H5.86719M8.76259 14.9913H5.86719M8.76259 12.4163H5.86719M8.76259 9.84136H5.86719M30.1239 25.3065H27.2362M30.1239 22.7315H27.2362M30.1239 20.1565H27.2362M30.1239 17.5739H27.2362M30.1239 14.9913H27.2362M30.1239 12.4163H27.2362" stroke="#FF833B" stroke-miterlimit="10" stroke-linecap="round" stroke-linejoin="round"/>
</g>
<defs>
<clipPath id="clip0_1702_2014">
<rect width="36" height="32" fill="white"/>
</clipPath>
</defs>
</svg>
