<svg width="33" height="32" viewBox="0 0 33 32" fill="none" xmlns="http://www.w3.org/2000/svg">
<g clip-path="url(#clip0_1702_2021)">
<path d="M3.86887 12.2187V28.1275M28.4482 11.836V28.1275M2.16653 13.4396L0.455078 11.0433L16.4954 0.455566L32.5356 11.0433L30.8242 13.4305L16.4954 3.53529L2.16653 13.4396ZM31.516 28.1367H0.801009V31.5535H31.5251V28.1367H31.516Z" stroke="#FF833B" stroke-miterlimit="10" stroke-linecap="round" stroke-linejoin="round"/>
<path d="M15.822 28.1365V15.1433C15.822 14.7698 15.5125 14.46 15.1393 14.46H8.31166C7.93842 14.46 7.62891 14.7698 7.62891 15.1433V28.1274M25.3806 23.3438V15.1433C25.3806 14.7698 25.0711 14.46 24.6979 14.46H19.9186C19.5453 14.46 19.2358 14.7698 19.2358 15.1433V23.3438M17.5244 23.3438H27.083M19.2267 18.9064H25.3715" stroke="#FF833B" stroke-miterlimit="10" stroke-linecap="round" stroke-linejoin="round"/>
<path d="M11.379 21.467C11.379 21.7495 11.1514 21.9773 10.8692 21.9773H9.84964C9.56743 21.9773 9.33984 21.7495 9.33984 21.467C9.33984 21.1846 9.56743 20.9568 9.84964 20.9568H10.8692C11.1514 20.9568 11.379 21.1846 11.379 21.467Z" fill="#FF833B"/>
</g>
<defs>
<clipPath id="clip0_1702_2021">
<rect width="33" height="32" fill="white"/>
</clipPath>
</defs>
</svg>
