<svg width="34" height="32" viewBox="0 0 34 32" fill="none" xmlns="http://www.w3.org/2000/svg">
<g clip-path="url(#clip0_1702_2028)">
<path d="M13.9648 27.0315H11.9544C11.8835 27.0315 11.8155 27.06 11.7652 27.1108C11.715 27.1615 11.6867 27.2304 11.6865 27.3023V29.2608C11.6865 29.3326 11.7147 29.4019 11.765 29.4528C11.8152 29.5036 11.8834 29.5322 11.9544 29.5322H13.9648C14.0359 29.5322 14.104 29.5036 14.1542 29.4528C14.2045 29.4019 14.2327 29.3326 14.2327 29.2608V27.3023C14.2325 27.2304 14.2042 27.1615 14.154 27.1108C14.1038 27.06 14.0357 27.0315 13.9648 27.0315ZM13.6969 28.9892H12.2193V27.5738H13.6954L13.6969 28.9892Z" fill="#FF833B"/>
<path d="M18.0513 27.0312H16.0394C15.9685 27.0312 15.9005 27.0597 15.8502 27.1105C15.8 27.1613 15.7717 27.2301 15.7715 27.302V29.2605C15.7715 29.3324 15.7997 29.4016 15.85 29.4525C15.9002 29.5034 15.9684 29.5319 16.0394 29.5319H18.0513C18.1224 29.5319 18.1905 29.5034 18.2408 29.4525C18.291 29.4016 18.3192 29.3324 18.3192 29.2605V27.302C18.319 27.2301 18.2907 27.1613 18.2405 27.1105C18.1903 27.0597 18.1222 27.0312 18.0513 27.0312ZM17.7834 28.9889H16.3073V27.5735H17.7834V28.9889Z" fill="#FF833B"/>
<path d="M22.0468 27.0313H20.0365C19.9655 27.0313 19.8975 27.0597 19.8473 27.1105C19.7971 27.1613 19.7687 27.2301 19.7686 27.302V29.2605C19.7686 29.3324 19.7968 29.4016 19.847 29.4525C19.8973 29.5034 19.9654 29.5319 20.0365 29.5319H22.0484C22.1194 29.5319 22.1876 29.5034 22.2378 29.4525C22.2881 29.4016 22.3163 29.3324 22.3163 29.2605V27.302C22.3162 27.2663 22.3091 27.2309 22.2955 27.198C22.2819 27.165 22.262 27.1351 22.237 27.11C22.212 27.0848 22.1823 27.0649 22.1497 27.0514C22.117 27.0379 22.0821 27.0311 22.0468 27.0313ZM21.782 28.9889H20.3028V27.5735H21.782V28.9889Z" fill="#FF833B"/>
<path d="M13.9648 23.0144H11.9544C11.8835 23.0144 11.8155 23.0429 11.7652 23.0937C11.715 23.1444 11.6867 23.2133 11.6865 23.2852V25.2436C11.6865 25.3156 11.7147 25.3847 11.765 25.4356C11.8152 25.4865 11.8834 25.5152 11.9544 25.5152H13.9648C14.0359 25.5152 14.104 25.4865 14.1542 25.4356C14.2045 25.3847 14.2327 25.3156 14.2327 25.2436V23.2852C14.2325 23.2133 14.2042 23.1444 14.154 23.0937C14.1038 23.0429 14.0357 23.0144 13.9648 23.0144ZM13.6969 24.9721H12.2193V23.5567H13.6954L13.6969 24.9721Z" fill="#FF833B"/>
<path d="M18.0513 23.0146H16.0394C15.9685 23.0146 15.9005 23.0431 15.8502 23.0939C15.8 23.1446 15.7717 23.2135 15.7715 23.2854V25.2439C15.7715 25.3159 15.7997 25.3849 15.85 25.4359C15.9002 25.4868 15.9684 25.5154 16.0394 25.5154H18.0513C18.1224 25.5154 18.1905 25.4868 18.2408 25.4359C18.291 25.3849 18.3192 25.3159 18.3192 25.2439V23.2854C18.319 23.2135 18.2907 23.1446 18.2405 23.0939C18.1903 23.0431 18.1222 23.0146 18.0513 23.0146ZM17.7834 24.9723H16.3073V23.5569H17.7834V24.9723Z" fill="#FF833B"/>
<path d="M22.0468 23.0147H20.0365C19.9655 23.0147 19.8975 23.0431 19.8473 23.0939C19.7971 23.1447 19.7687 23.2135 19.7686 23.2854V25.2439C19.7686 25.2795 19.7755 25.3148 19.789 25.3478C19.8024 25.3807 19.8221 25.4107 19.847 25.4359C19.8719 25.4611 19.9014 25.4811 19.9339 25.4947C19.9664 25.5084 20.0013 25.5154 20.0365 25.5154H22.0484C22.1194 25.5154 22.1876 25.4868 22.2378 25.4359C22.2881 25.3849 22.3163 25.3159 22.3163 25.2439V23.2854C22.3162 23.2497 22.3091 23.2143 22.2955 23.1814C22.2819 23.1484 22.262 23.1185 22.237 23.0934C22.212 23.0682 22.1823 23.0483 22.1497 23.0348C22.117 23.0213 22.0821 23.0145 22.0468 23.0147ZM21.782 24.9723H20.3028V23.5569H21.782V24.9723Z" fill="#FF833B"/>
<path d="M13.9648 18.9998H11.9544C11.8835 18.9998 11.8155 19.0283 11.7652 19.079C11.715 19.1298 11.6867 19.1986 11.6865 19.2705V21.2305C11.6865 21.3025 11.7147 21.3716 11.765 21.4225C11.8152 21.4735 11.8834 21.5021 11.9544 21.5021H13.9648C14.0359 21.5021 14.104 21.4735 14.1542 21.4225C14.2045 21.3716 14.2327 21.3025 14.2327 21.2305V19.2682C14.2319 19.1967 14.2033 19.1285 14.1532 19.0782C14.103 19.0279 14.0353 18.9998 13.9648 18.9998ZM13.6969 20.9575H12.2193V19.5382H13.6954L13.6969 20.9575Z" fill="#FF833B"/>
<path d="M18.0513 19H16.0394C15.9685 19 15.9005 19.0285 15.8502 19.0793C15.8 19.13 15.7717 19.1989 15.7715 19.2708V21.2308C15.7715 21.3028 15.7997 21.3719 15.85 21.4228C15.9002 21.4737 15.9684 21.5023 16.0394 21.5023H18.0513C18.1224 21.5023 18.1905 21.4737 18.2408 21.4228C18.291 21.3719 18.3192 21.3028 18.3192 21.2308V19.2685C18.3184 19.197 18.2898 19.1287 18.2397 19.0784C18.1895 19.0282 18.1219 19 18.0513 19ZM17.7834 20.9577H16.3073V19.5385H17.7834V20.9577Z" fill="#FF833B"/>
<path d="M22.0468 19H20.0365C19.9655 19 19.8975 19.0285 19.8473 19.0793C19.7971 19.13 19.7687 19.1989 19.7686 19.2708V21.2308C19.7686 21.3028 19.7968 21.3719 19.847 21.4228C19.8973 21.4737 19.9654 21.5023 20.0365 21.5023H22.0484C22.1189 21.5015 22.1863 21.4725 22.2359 21.4217C22.2854 21.3709 22.3132 21.3023 22.3132 21.2308V19.2685C22.3124 19.1973 22.2841 19.1292 22.2343 19.079C22.1844 19.0288 22.1171 19.0004 22.0468 19ZM21.782 20.9554H20.3028V19.5385H21.782V20.9554Z" fill="#FF833B"/>
<path d="M13.9648 14.9807H11.9544C11.9193 14.9806 11.8844 14.9875 11.852 15.0011C11.8194 15.0147 11.7899 15.0346 11.765 15.0597C11.7401 15.0849 11.7204 15.1148 11.7069 15.1477C11.6935 15.1806 11.6865 15.2159 11.6865 15.2515V17.2099C11.6865 17.282 11.7147 17.351 11.765 17.4019C11.8152 17.4529 11.8834 17.4815 11.9544 17.4815H13.9648C14.0359 17.4815 14.104 17.4529 14.1542 17.4019C14.2045 17.351 14.2327 17.282 14.2327 17.2099V15.2515C14.2327 15.2159 14.2258 15.1806 14.2123 15.1477C14.1988 15.1148 14.1791 15.0849 14.1542 15.0597C14.1293 15.0346 14.0998 15.0147 14.0673 15.0011C14.0348 14.9875 13.9999 14.9806 13.9648 14.9807ZM13.6969 16.9384H12.2193V15.523H13.6954L13.6969 16.9384Z" fill="#FF833B"/>
<path d="M18.0513 14.9805H16.0394C16.0043 14.9804 15.9694 14.9873 15.937 15.0009C15.9044 15.0144 15.8749 15.0344 15.85 15.0595C15.8251 15.0847 15.8054 15.1145 15.7919 15.1475C15.7784 15.1803 15.7715 15.2156 15.7715 15.2512V17.2097C15.7715 17.2817 15.7997 17.3508 15.85 17.4017C15.9002 17.4526 15.9684 17.4813 16.0394 17.4813H18.0513C18.1224 17.4813 18.1905 17.4526 18.2408 17.4017C18.291 17.3508 18.3192 17.2817 18.3192 17.2097V15.2512C18.3192 15.2156 18.3123 15.1803 18.2988 15.1475C18.2853 15.1145 18.2656 15.0847 18.2407 15.0595C18.2158 15.0344 18.1863 15.0144 18.1538 15.0009C18.1213 14.9873 18.0865 14.9804 18.0513 14.9805ZM17.7834 16.9382H16.3073V15.5228H17.7834V16.9382Z" fill="#FF833B"/>
<path d="M22.0468 14.9805H20.0365C20.0013 14.9804 19.9665 14.9873 19.934 15.0009C19.9015 15.0144 19.8719 15.0343 19.8471 15.0595C19.8222 15.0847 19.8024 15.1146 19.789 15.1474C19.7755 15.1804 19.7686 15.2156 19.7686 15.2512V17.2097C19.7686 17.2817 19.7968 17.3508 19.847 17.4017C19.8973 17.4526 19.9654 17.4812 20.0365 17.4812H22.0484C22.1194 17.4812 22.1876 17.4526 22.2378 17.4017C22.2881 17.3508 22.3163 17.2817 22.3163 17.2097V15.2512C22.3163 15.2155 22.3093 15.1801 22.2957 15.1471C22.2822 15.1141 22.2623 15.0841 22.2372 15.059C22.2122 15.0338 22.1825 15.0139 22.1498 15.0004C22.1171 14.9869 22.0821 14.9802 22.0468 14.9805ZM21.782 16.9382H20.3028V15.5228H21.782V16.9382Z" fill="#FF833B"/>
<path d="M33.6971 30.8052H31.0557V28.4614C31.0548 27.6789 30.8077 26.9171 30.3505 26.2867C29.8931 25.6563 29.2493 25.1902 28.5127 24.956V11.456C28.5112 10.0865 27.9739 8.7735 27.0184 7.80509C26.063 6.83672 24.7676 6.29207 23.4165 6.29062H19.5869V5.34447C19.5861 4.68829 19.3456 4.05561 18.9119 3.56842C18.4782 3.08127 17.8819 2.77404 17.238 2.706V0.922928C17.238 0.85092 17.2098 0.781865 17.1595 0.730928C17.1093 0.67999 17.0412 0.651404 16.9701 0.651404C16.899 0.651404 16.8309 0.67999 16.7807 0.730928C16.7304 0.781865 16.7022 0.85092 16.7022 0.922928V2.706C16.0583 2.77404 15.462 3.08127 15.0283 3.56842C14.5946 4.05561 14.3542 4.68829 14.3533 5.34447V7.03063C14.1373 6.74099 13.8648 6.49949 13.5527 6.32111C13.2407 6.14273 12.8958 6.03128 12.5395 5.9937V0.922928C12.5414 0.886103 12.5359 0.849279 12.5234 0.814686C12.5108 0.78006 12.4914 0.748421 12.4664 0.721672C12.4414 0.694891 12.4112 0.67359 12.3778 0.659018C12.3443 0.644446 12.3083 0.636963 12.272 0.636963C12.2356 0.636963 12.1996 0.644446 12.1661 0.659018C12.1327 0.67359 12.1026 0.694891 12.0776 0.721672C12.0525 0.748421 12.0331 0.78006 12.0206 0.814686C12.008 0.849279 12.0025 0.886103 12.0044 0.922928V5.9937C11.4338 6.05432 10.8985 6.30316 10.4809 6.702C10.0633 7.10083 9.78637 7.6276 9.69273 8.2014H9.17894C8.20042 8.20242 7.26228 8.59686 6.57036 9.29816C5.87844 9.99947 5.48929 10.9503 5.48829 11.9422V16.0522C4.75165 16.2863 4.10789 16.7525 3.6505 17.3829C3.19316 18.0133 2.94606 18.7751 2.94512 19.5576V30.8052H0.304033C0.232983 30.8052 0.164841 30.8337 0.114598 30.8846C0.0643561 30.9358 0.0361328 31.0047 0.0361328 31.0769C0.0361328 31.1488 0.0643561 31.2177 0.114598 31.2689C0.164841 31.3198 0.232983 31.3484 0.304033 31.3484H33.6971C33.768 31.3484 33.836 31.3198 33.8865 31.2689C33.9367 31.2177 33.9648 31.1488 33.9648 31.0769C33.9648 31.0047 33.9367 30.9358 33.8865 30.8846C33.836 30.8337 33.768 30.8052 33.6971 30.8052ZM23.4165 6.8337C24.6255 6.83512 25.7846 7.32257 26.6396 8.18913C27.4945 9.05565 27.9754 10.2305 27.9769 11.456V24.7875H26.8893V11.456C26.8883 10.5228 26.5221 9.62804 25.871 8.96812C25.2199 8.3082 24.3372 7.93703 23.4165 7.93601H19.5869V6.8337H23.4165ZM24.3461 26.5483V12.3391C24.3459 12.2672 24.3176 12.1983 24.2674 12.1476C24.2172 12.0968 24.1491 12.0683 24.0782 12.0683H19.5869V8.4791H23.4165C24.1952 8.47992 24.9417 8.79381 25.4924 9.35192C26.043 9.91 26.3527 10.6667 26.3535 11.456V24.9545C25.5165 25.2227 24.8034 25.7888 24.3461 26.5483ZM16.9701 3.23523C17.4758 3.23625 17.9638 3.42365 18.3432 3.76249C18.7226 4.10133 18.9675 4.56847 19.0321 5.07679H14.9081C14.9728 4.56847 15.2176 4.10133 15.597 3.76249C15.9764 3.42365 16.4645 3.23625 16.9701 3.23523ZM14.8884 5.61987H19.0496V12.0722H14.8884V5.61524V5.61987ZM12.2716 6.52601C12.8235 6.52664 13.3526 6.74913 13.7429 7.14468C14.1332 7.54027 14.3527 8.07659 14.3533 8.63601V12.0722H10.1906V10.1183V8.62987C10.1918 8.07097 10.4115 7.53534 10.8015 7.14031C11.1916 6.74525 11.7202 6.52299 12.2716 6.52217V6.52601ZM9.65481 26.0414H3.48015V21.5029H9.65481V26.0414ZM3.48015 26.5837H9.65481V30.8006H3.48015V26.5837ZM9.65481 12.3429V17.6506C9.19749 16.8911 8.48446 16.325 7.64742 16.0568V11.9422C7.64784 11.5305 7.80929 11.1358 8.09641 10.8447C8.3835 10.5535 8.77281 10.3897 9.17894 10.3891H9.65481V12.3429ZM6.02409 15.8891V11.9422C6.02487 11.0943 6.35749 10.2813 6.94896 9.68167C7.54043 9.08204 8.34241 8.74471 9.17894 8.74369H9.65481V9.846H9.17894C8.63086 9.84663 8.10535 10.0676 7.71778 10.4604C7.33021 10.8532 7.11222 11.3858 7.11161 11.9414V15.8845L6.02409 15.8891ZM6.56748 16.4322C7.38597 16.4332 8.17066 16.7632 8.74944 17.3498C9.32818 17.9365 9.6538 18.7318 9.65481 19.5614V20.9591H3.48015V19.5576C3.48115 18.7279 3.80674 17.9326 4.38552 17.346C4.9643 16.7593 5.74898 16.4293 6.56748 16.4283V16.4322ZM10.1906 19.5614V12.6106H23.8103V30.8052H10.1906V19.5614ZM24.3461 30.8052V28.4614C24.3461 27.6315 24.6714 26.8355 25.2504 26.2487C25.8294 25.6618 26.6147 25.3322 27.4334 25.3322C28.2523 25.3322 29.0375 25.6618 29.6165 26.2487C30.1954 26.8355 30.5208 27.6315 30.5208 28.4614V30.8068L24.3461 30.8052Z" fill="#FF833B"/>
</g>
<defs>
<clipPath id="clip0_1702_2028">
<rect width="34" height="32" fill="white"/>
</clipPath>
</defs>
</svg>
