<svg width="46" height="40" viewBox="0 0 46 40" fill="none" xmlns="http://www.w3.org/2000/svg">
<path d="M44.5682 20.8341L45.3198 19.9655L44.5682 19.0969C30.7979 2.9349 14.4812 2.8718 0.758415 19.1008L0.0161949 19.9655L0.758415 20.8302C9.43559 31.1954 21.591 36.9354 33.8561 29.9203C37.5086 27.8845 41.1126 24.8274 44.5682 20.8341ZM22.665 30.3659C16.9302 30.3659 12.2646 25.7003 12.2646 19.9655C12.836 6.16786 32.4963 6.17193 33.0655 19.9656C33.0655 25.7003 28.3999 30.3659 22.665 30.3659ZM3.53101 19.9654C6.20449 16.9813 8.9224 14.6339 11.6715 12.9305C8.95036 16.9481 8.95054 22.983 11.6715 27.0003C8.92249 25.297 6.20458 22.9496 3.53101 19.9654ZM33.6951 26.9431C36.3682 22.9493 36.368 16.9815 33.6951 12.9878C36.4248 14.6864 39.1284 17.0147 41.7929 19.9655C39.1284 22.9163 36.4248 25.2445 33.6951 26.9431Z" fill="#1F1F1F"/>
<path d="M22.665 14.3069C19.5449 14.3069 17.0066 16.8453 17.0066 19.9654C17.3174 27.4722 28.0138 27.47 28.3236 19.9654C28.3236 16.8453 25.7852 14.3069 22.665 14.3069ZM22.665 22.9691C21.0088 22.9691 19.6615 21.6217 19.6615 19.9655C19.8264 15.9808 25.5044 15.9819 25.6687 19.9655C25.6687 21.6217 24.3212 22.9691 22.665 22.9691Z" fill="#1F1F1F"/>
<path d="M35.4099 0V2.6549H42.6666V9.91161H45.3215V0H35.4099Z" fill="#1F1F1F"/>
<path d="M42.6666 37.3451H35.4099V40H45.3215V30.0884H42.6666V37.3451Z" fill="#1F1F1F"/>
<path d="M2.6549 2.6549H9.91161V0H0V9.91161H2.6549V2.6549Z" fill="#1F1F1F"/>
<path d="M2.6549 30.0884H0V40H9.91161V37.3451H2.6549V30.0884Z" fill="#1F1F1F"/>
</svg>
