<svg width="44" height="43" viewBox="0 0 44 43" fill="none" xmlns="http://www.w3.org/2000/svg">
<path d="M31.7042 3.37823C28.0718 0.493004 23.324 -0.617473 18.6772 0.331556C12.8703 1.51755 8.13278 6.16836 6.88841 11.9046C5.8392 16.7415 7.13213 21.5975 10.4357 25.2276C12.0742 27.028 12.9766 29.2803 12.9766 31.576V34.096C12.9766 35.7386 14.0543 37.1392 15.5547 37.6593V39.22C15.5547 41.3043 17.2895 43 19.4219 43H24.5781C26.7105 43 28.4453 41.3043 28.4453 39.22V37.6593C29.9457 37.1392 31.0234 35.7386 31.0234 34.096V31.576C31.0234 29.3097 31.9526 27.0255 33.6395 25.1443C36.1089 22.3907 37.4688 18.8576 37.4688 15.1961C37.4688 10.5957 35.3677 6.28815 31.7042 3.37823ZM25.8672 39.22C25.8672 39.9148 25.2889 40.48 24.5781 40.48H19.4219C18.7111 40.48 18.1328 39.9148 18.1328 39.22V37.876H25.8672V39.22ZM28.4453 34.096C28.4453 34.7908 27.867 35.356 27.1562 35.356H16.8438C16.133 35.356 15.5547 34.7908 15.5547 34.096V32.836H28.4453V34.096ZM22 21.3849C22.8705 21.3849 23.7407 21.2488 24.5781 20.9788V30.3161H19.4219V20.9788C20.2593 21.2488 21.1295 21.3849 22 21.3849ZM19.8451 18.4461L22 14.2335L24.1549 18.446C22.7735 19.0016 21.2265 19.0016 19.8451 18.4461ZM31.7008 23.4832C29.9084 25.482 28.8035 27.8695 28.5188 30.316H27.1562V18.9849C27.1562 18.9832 27.1562 18.9816 27.1562 18.9799C27.1562 18.808 27.1182 18.6186 27.0324 18.4406C27.0279 18.4314 27.0248 18.4217 27.0201 18.4127L23.1529 10.8527C22.9346 10.4258 22.4882 10.1562 21.9999 10.1562C21.5116 10.1562 21.0653 10.4258 20.8469 10.8527L16.9797 18.4127C16.8944 18.5798 16.8437 18.7831 16.8437 18.979C16.8437 18.9813 16.8437 18.9835 16.8437 18.9857V30.3161H15.4844C15.208 27.8527 14.1237 25.4886 12.362 23.5528C9.60884 20.5275 8.53299 16.4725 9.4105 12.4274C10.4462 7.65281 14.3822 3.78319 19.2045 2.79829C23.0879 2.00517 27.0511 2.92942 30.0783 5.33391C33.1366 7.76319 34.8906 11.3578 34.8906 15.1961C34.8906 18.2463 33.7578 21.1894 31.7008 23.4832Z" fill="#1F1F1F"/>
<path d="M3.86719 15.1961H1.28906C0.577156 15.1961 0 15.7602 0 16.4561C0 17.1519 0.577156 17.7161 1.28906 17.7161H3.86719C4.57909 17.7161 5.15625 17.1519 5.15625 16.4561C5.15625 15.7602 4.57909 15.1961 3.86719 15.1961Z" fill="#1F1F1F"/>
<path d="M4.40112 8.89609L2.57812 7.1142C2.0747 6.62213 1.25855 6.62213 0.755133 7.1142C0.251711 7.60627 0.251711 8.40402 0.755133 8.89609L2.57812 10.678C3.08163 11.1701 3.89778 11.17 4.40112 10.678C4.90454 10.1859 4.90454 9.38816 4.40112 8.89609Z" fill="#1F1F1F"/>
<path d="M4.40112 22.2342C3.8977 21.7421 3.08155 21.7421 2.57812 22.2342L0.755133 24.0161C0.251797 24.5081 0.251797 25.3059 0.755133 25.7979C1.25847 26.2899 2.07462 26.29 2.57812 25.7979L4.40112 24.0161C4.90445 23.524 4.90445 22.7262 4.40112 22.2342Z" fill="#1F1F1F"/>
<path d="M42.7109 15.1961H40.1328C39.4209 15.1961 38.8438 15.7602 38.8438 16.4561C38.8438 17.1519 39.4209 17.7161 40.1328 17.7161H42.7109C43.4228 17.7161 44 17.1519 44 16.4561C44 15.7602 43.4228 15.1961 42.7109 15.1961Z" fill="#1F1F1F"/>
<path d="M43.2449 7.1142C42.7415 6.62213 41.9253 6.62213 41.4219 7.1142L39.5989 8.89609C39.0955 9.38816 39.0955 10.1859 39.5989 10.678C40.1022 11.17 40.9185 11.17 41.4219 10.678L43.2449 8.89609C43.7483 8.40402 43.7483 7.60627 43.2449 7.1142Z" fill="#1F1F1F"/>
<path d="M43.2449 24.0161L41.4219 22.2342C40.9186 21.7421 40.1024 21.7421 39.5989 22.2342C39.0954 22.7262 39.0955 23.524 39.5989 24.0161L41.4219 25.7979C41.9251 26.29 42.7414 26.29 43.2449 25.7979C43.7483 25.3059 43.7483 24.5081 43.2449 24.0161Z" fill="#1F1F1F"/>
</svg>
