<svg width="54" height="54" viewBox="0 0 54 54" fill="none" xmlns="http://www.w3.org/2000/svg">
<g clip-path="url(#clip0_505_1187)">
<path fill-rule="evenodd" clip-rule="evenodd" d="M17.8477 14.4838C19.5475 16.5061 22.8021 18.7666 27.1939 19.3192C28.9374 19.5385 30.8298 19.4854 32.8443 19.0619L11.051 40.7565L13.5595 43.2837L35.98 20.9729C35.2175 23.3399 34.9972 25.5702 35.163 27.614C35.5187 32.0031 37.641 35.3396 39.595 37.1205L41.9978 34.5096C40.6539 33.2847 38.9929 30.762 38.7155 27.3406C38.4429 23.9788 39.4926 19.5498 43.8885 14.443L42.6791 13.4116L41.9097 12.6365L40.8175 11.2464C35.4892 15.3828 30.9937 16.2248 27.6297 15.8014C24.2063 15.3707 21.748 13.6056 20.5789 12.2147L17.8477 14.4838Z" fill="#02000F"/>
</g>
<defs>
<clipPath id="clip0_505_1187">
<rect width="43.2" height="32" fill="white" transform="translate(0.5 31) rotate(-45)"/>
</clipPath>
</defs>
</svg>
