<svg width="25" height="18" viewBox="0 0 25 18" fill="none" xmlns="http://www.w3.org/2000/svg">
<g clip-path="url(#clip0_261_529)">
<path fill-rule="evenodd" clip-rule="evenodd" d="M13.8031 0.330811C13.6765 1.81124 14.067 4.00485 15.5752 5.97147C16.1739 6.75218 16.9382 7.48374 17.8959 8.11658L0.812262 8.07734L0.804932 10.0802L18.377 10.1239C17.1477 10.7621 16.185 11.5616 15.4472 12.4404C13.8627 14.3277 13.3858 16.4989 13.4538 17.9844L15.4234 17.9017C15.3766 16.8799 15.7151 15.2158 16.9501 13.7447C18.1637 12.2991 20.3159 10.955 24.049 10.6722L23.979 9.78095L23.9813 9.16661L24.0983 8.17931C20.3802 7.70523 18.2834 6.25205 17.1282 4.74563C15.9526 3.21265 15.6803 1.53281 15.7674 0.514553L13.8031 0.330811Z" fill="white"/>
</g>
<defs>
<clipPath id="clip0_261_529">
<rect width="24" height="18" fill="white" transform="translate(0.5)"/>
</clipPath>
</defs>
</svg>
