<svg width="24" height="24" viewBox="0 0 24 24" fill="none" xmlns="http://www.w3.org/2000/svg">
<path d="M15.3118 24C15.2524 24 15.1928 23.9998 15.1327 23.9992C13.2832 23.9828 11.3862 23.4321 9.49444 22.3623C8.00903 21.5222 6.51588 20.3563 5.05658 18.8969C1.73131 15.5716 0.030328 12.1972 0.000938497 8.86752C-0.017717 6.75734 0.222086 3.68736 2.50978 1.39957C3.40369 0.505632 4.5189 0.00862485 5.6499 0.000140623L5.68 0H5.68782C7.05671 0 8.32777 0.749002 9.00583 1.9562L9.77024 3.3171L9.78327 3.34424C10.1718 4.15376 10.3621 4.77554 10.4 5.36034C10.4544 6.19691 10.1843 6.92083 9.59733 7.51215L7.47318 9.71397C7.78891 10.5873 8.59686 12.4704 10.1322 14.0091C11.6521 15.5257 13.4844 16.2993 14.3524 16.6037L16.4818 14.3937C17.0784 13.7981 17.7863 13.5139 18.5847 13.5486C19.1981 13.5754 19.8448 13.7807 20.6815 14.2143L20.7093 14.2293L22.0439 14.9789C23.2533 15.6583 24.0029 16.9329 24 18.3054L23.9998 18.3384C23.9914 19.4659 23.4944 20.5811 22.6005 21.4751C21.6069 22.4686 20.3541 23.1762 18.8768 23.5781C17.8344 23.8617 16.6665 24 15.3118 24ZM5.68717 1.87497C5.68586 1.87497 5.68459 1.87497 5.68328 1.87497L5.66359 1.87506C5.02851 1.87984 4.37913 2.18181 3.83558 2.72536C2.04625 4.51473 1.86012 7.07833 1.87577 8.85092C1.90071 11.6718 3.41691 14.6057 6.3823 17.5711C9.37852 20.5675 12.3282 22.0993 15.1492 22.1243C16.9154 22.1399 19.4719 21.9521 21.2746 20.1492C21.8182 19.6056 22.1202 18.9563 22.125 18.3208L22.1251 18.2981C22.1265 17.6075 21.7435 16.9607 21.1256 16.6136L19.8051 15.8718C18.5031 15.1998 18.129 15.4006 17.8122 15.7147L14.9239 18.7128L14.3975 18.5809C14.2699 18.5489 11.2464 17.7701 8.80709 15.3355L8.80583 15.3342C6.377 12.9006 5.53614 9.84081 5.5015 9.71172L5.36421 9.19962L8.26407 6.19391C8.53809 5.91932 8.75112 5.53743 8.10573 4.18221L7.37118 2.87442C7.02465 2.25769 6.37967 1.87497 5.68717 1.87497ZM20.705 3.29502C18.5803 1.17021 15.7552 4.68742e-05 12.7504 4.68742e-05V1.87501C17.9196 1.87501 22.125 6.08057 22.125 11.2498H23.9999C23.9999 8.24489 22.8298 5.41978 20.705 3.29502ZM12.7504 7.49987V9.37484C13.7842 9.37484 14.6253 10.2159 14.6253 11.2498H16.5002C16.5002 9.18209 14.8181 7.49987 12.7504 7.49987ZM12.7504 3.74993V5.6249C15.8519 5.6249 18.3752 8.14823 18.3752 11.2498H20.2501C20.2501 7.11438 16.8858 3.74993 12.7504 3.74993Z" fill="#FF833B"/>
</svg>
