<svg width="100" height="100" viewBox="0 0 100 100" fill="none" xmlns="http://www.w3.org/2000/svg">
<g clip-path="url(#clip0_470_1886)">
<path d="M71.2282 55.456L56.2968 32.0491C58.4124 30.9373 59.8595 28.7188 59.8595 26.1675C59.8595 23.375 58.126 20.9811 55.6792 20.0011L60.2025 4.18689C60.3977 3.50462 60.2074 2.77039 59.7058 2.26861C56.6968 -0.740171 51.8012 -0.740171 48.7923 2.26861C48.0725 2.98838 47.1156 3.38469 46.0978 3.38469C45.0799 3.38469 44.123 2.98838 43.3988 2.26392L43.3892 2.25435C40.391 -0.744273 35.5038 -0.752672 32.4934 2.23657L32.4374 2.29243C30.9515 3.76772 28.5383 3.76342 27.0579 2.28286L27.0437 2.26861C24.0347 -0.740171 19.1391 -0.740171 16.1301 2.26861C15.6281 2.77078 15.4381 3.50559 15.6336 4.18825L20.1667 19.9974C17.7146 20.9748 15.9764 23.3713 15.9764 26.1677C15.9764 28.719 17.4234 30.9375 19.5391 32.0493L4.60755 55.456C-1.16897 64.5112 -1.53501 75.5404 3.62839 84.9588C8.79179 94.3771 18.2869 100 29.028 100H46.8076C57.5485 100 67.0436 94.3771 72.2072 84.9588C77.3706 75.5404 77.0047 64.5112 71.2282 55.456ZM24.2812 5.03088L24.2955 5.04514C27.2941 8.04356 32.1811 8.05177 35.1912 5.06292L35.2473 5.00705C36.7329 3.53177 39.1462 3.53606 40.6312 5.02112L40.6408 5.03069C43.6498 8.03946 48.5454 8.03946 51.5543 5.03069C52.7786 3.80639 54.6356 3.59095 56.0825 4.38436L51.7518 19.5265H24.0958L19.7538 4.38416C21.2007 3.59095 23.0571 3.80678 24.2812 5.03088ZM68.7817 83.0809C64.3147 91.2291 56.1001 96.0938 46.8078 96.0938H29.0282C19.7358 96.0938 11.5213 91.2293 7.05419 83.0809C2.58712 74.9328 2.90374 65.3912 7.90111 57.5569L23.6882 32.8085H29.1284C30.2071 32.8085 31.0816 31.9341 31.0816 30.8553C31.0816 29.7765 30.2071 28.9021 29.1284 28.9021H22.6174C21.1095 28.9021 19.8829 27.6754 19.8829 26.1675C19.8829 24.6596 21.1095 23.433 22.6174 23.433H22.6239H53.2183C54.7262 23.433 55.9528 24.6596 55.9528 26.1675C55.9528 27.6754 54.7262 28.9021 53.2183 28.9021H46.7076C45.6288 28.9021 44.7543 29.7765 44.7543 30.8553C44.7543 31.9341 45.6288 32.8085 46.7076 32.8085H52.1475L67.9348 57.5569C72.9322 65.391 73.2488 74.9326 68.7817 83.0809Z" fill="#6C6D71"/>
<path d="M41.3613 63.7889C40.8713 63.6157 40.371 63.4354 39.871 63.2481V54.3956C41.1953 54.7853 42.0797 55.4171 42.1172 55.4445C42.9765 56.0881 44.1955 55.9174 44.8447 55.0605C45.4961 54.2007 45.3272 52.9756 44.4674 52.324C44.3527 52.2371 42.5366 50.8889 39.871 50.3786V48.4347C39.871 47.3559 38.9965 46.4814 37.9178 46.4814C36.839 46.4814 35.9645 47.3559 35.9645 48.4347V50.3645C35.6336 50.428 35.2983 50.5083 34.9584 50.6104C32.2094 51.4364 30.1546 53.7874 29.5958 56.7457C29.0858 59.4471 29.9513 62.0525 31.8545 63.5452C32.8874 64.3552 34.1779 65.0949 35.9645 65.8805V77.2085C34.4263 77.1112 33.3974 76.7612 31.682 75.6391C30.7794 75.0482 29.5686 75.3015 28.9781 76.2043C28.3875 77.1071 28.6406 78.3175 29.5434 78.9082C32.0447 80.5444 33.7384 81.0079 35.9645 81.1175V83.1374C35.9645 84.2161 36.839 85.0906 37.9178 85.0906C38.9965 85.0906 39.871 84.2161 39.871 83.1374V80.9146C44.0537 79.9985 46.4999 76.5083 47.0488 73.2432C47.7662 68.9746 45.5338 65.2636 41.3613 63.7889ZM34.2654 60.4712C33.5146 59.8823 33.1962 58.7324 33.4345 57.4704C33.6536 56.3098 34.4345 54.9103 35.9645 54.3925V61.5458C35.3223 61.2034 34.7428 60.8456 34.2654 60.4712ZM43.1962 72.5953C42.9149 74.2683 41.7858 76.0426 39.8708 76.8266V67.4044C39.9345 67.427 39.9948 67.4491 40.0593 67.472C43.5613 68.7097 43.3458 71.7064 43.1962 72.5953Z" fill="#6C6D71"/>
<path d="M37.9181 32.8086C38.4318 32.8086 38.9357 32.5996 39.299 32.2363C39.6623 31.873 39.8713 31.369 39.8713 30.8553C39.8713 30.3416 39.6623 29.8377 39.299 29.4744C38.9357 29.1111 38.4318 28.9021 37.9181 28.9021C37.4044 28.9021 36.9004 29.1111 36.5371 29.4744C36.1738 29.8377 35.9648 30.3416 35.9648 30.8553C35.9648 31.369 36.1738 31.873 36.5371 32.2363C36.9004 32.5996 37.4042 32.8086 37.9181 32.8086Z" fill="#6C6D71"/>
</g>
<defs>
<clipPath id="clip0_470_1886">
<rect width="100" height="100" fill="white"/>
</clipPath>
</defs>
</svg>
