<svg width="95" height="94" viewBox="0 0 95 94" fill="none" xmlns="http://www.w3.org/2000/svg">
<path d="M75.031 0.59375C64.5623 0.59375 55.9685 8.40625 55.031 18.875C54.8748 19.8125 55.1873 20.5938 55.8123 21.2188C56.4373 21.8438 57.2185 22.1562 58.156 22.1562H73.4685V79.3438H71.5935C69.2498 79.3438 67.3748 81.2188 67.3748 83.5625V90.125H63.9373C62.9998 90.125 62.3748 90.75 62.3748 91.6875C62.3748 92.625 62.9998 93.25 63.9373 93.25H85.9685C86.906 93.25 87.531 92.625 87.531 91.6875C87.531 90.75 86.906 90.125 85.9685 90.125H82.531V83.5625C82.531 81.2188 80.656 79.3438 78.3123 79.3438H76.4373V22.3125H91.7498C92.6873 22.3125 93.4685 22 94.0935 21.375C94.7185 20.75 95.031 19.8125 94.8748 19.0312C93.9373 8.40625 85.3435 0.59375 75.031 0.59375ZM79.406 83.7188V90.2812H70.4998V83.7188C70.4998 83.0938 70.9685 82.625 71.5935 82.625H78.4685C78.9373 82.625 79.406 83.0938 79.406 83.7188ZM58.156 19.1875C58.9373 10.4375 66.281 3.875 75.031 3.875C83.781 3.875 91.1248 10.4375 91.906 19.1875H58.156Z" fill="#6C6D71"/>
<path d="M63.9375 74.6563V51.8438C63.9375 47.9375 60.9687 44.8125 57.0625 44.5V37.4688C57.0625 26.5312 48.1562 17.625 37.2188 17.625H27.6875C16.75 17.625 7.84375 26.5312 7.84375 37.4688V44.5C4.09375 44.8125 0.96875 47.9375 0.96875 51.8438V74.6563C0.96875 78.7188 4.25 82 8.3125 82.1562L7.0625 85.4375C6.59375 86.8438 6.59375 88.5625 7.375 89.9688C8 91.375 9.25 92.4688 10.6562 92.9375C11.2812 93.0938 11.9062 93.25 12.5312 93.25C14.875 93.25 17.2188 91.6875 18 89.3438L20.5 82.1562H43.9375L46.4375 89.3438C47.2188 91.6875 49.5625 93.25 51.9062 93.25C52.5312 93.25 53.1562 93.0938 53.7812 92.9375C56.75 91.8438 58.4687 88.5625 57.375 85.4375L56.125 82.1562C60.6562 82 63.9375 78.7188 63.9375 74.6563ZM27.6875 20.75H37.2188C46.4375 20.75 53.9375 28.25 53.9375 37.4688V44.9688C51.125 46.0625 49.25 48.7187 49.25 51.8438V55.4375H15.6563V51.8438C15.6563 48.7187 13.625 46.0625 10.9688 44.9688V37.4688C10.9688 28.25 18.4688 20.75 27.6875 20.75ZM15.6563 58.7188H49.25V67.1563C49.25 67.4688 49.0938 67.625 48.7812 67.625H16.125C15.8125 67.625 15.6563 67.4688 15.6563 67.1563V58.7188ZM15.1875 88.4063C14.7188 89.8125 13.1562 90.5938 11.75 90.125C11.125 89.8125 10.5 89.3438 10.1875 88.7188C9.875 88.0938 9.875 87.3125 10.0312 86.6875L11.5938 82.3125H17.375L15.1875 88.4063ZM53.1562 90.125C51.75 90.5938 50.1875 89.8125 49.7188 88.4063L47.5312 82.1562H53.3125L54.875 86.5312C55.3438 87.9375 54.5625 89.5 53.1562 90.125ZM60.8125 74.6563C60.8125 77.1563 58.7812 79.1875 56.2812 79.1875H8.625C6.125 79.1875 4.09375 77.1563 4.09375 74.6563V51.8438C4.09375 49.5 5.96875 47.625 8.3125 47.625C10.6562 47.625 12.5312 49.5 12.5312 51.8438V67C12.5312 69.0312 14.0938 70.5938 16.125 70.5938H48.625C50.6563 70.5938 52.2188 69.0312 52.2188 67V51.8438C52.2188 49.5 54.0938 47.625 56.4375 47.625C58.7812 47.625 60.6562 49.5 60.6562 51.8438V74.6563H60.8125Z" fill="#6C6D71"/>
</svg>
