<svg width="59" height="55" viewBox="0 0 59 55" fill="none" xmlns="http://www.w3.org/2000/svg">
<path d="M30.2551 44.6875C30.2551 45.3204 29.7459 45.8333 29.1176 45.8333C28.4894 45.8333 27.9802 45.3204 27.9802 44.6875C27.9802 44.0546 28.4894 43.5417 29.1176 43.5417C29.7459 43.5417 30.2551 44.0546 30.2551 44.6875Z" fill="white"/>
<path d="M54.4818 34.375C54.4818 30.5839 51.4206 27.5 47.6574 27.5C43.8942 27.5 40.8329 30.5839 40.8329 34.375C40.8329 38.1661 43.8942 41.25 47.6574 41.25C51.4206 41.25 54.4818 38.1661 54.4818 34.375ZM47.6574 38.9583C45.1489 38.9583 43.1078 36.9021 43.1078 34.375C43.1078 31.8479 45.1489 29.7917 47.6574 29.7917C50.1659 29.7917 52.207 31.8479 52.207 34.375C52.207 36.9021 50.1659 38.9583 47.6574 38.9583Z" fill="white"/>
<path d="M47.6574 41.25C44.7912 41.25 41.933 42.4487 39.9861 44.3921C37.4234 40.9993 33.4718 38.9583 29.1176 38.9583C24.9479 38.9583 20.9074 40.8749 18.2496 44.3921C16.3023 42.4491 13.4445 41.25 10.5779 41.25C4.8442 41.25 0 45.9725 0 51.5625V53.8542C0 54.4871 0.509168 55 1.13741 55H57.0979C57.7261 55 58.2353 54.4871 58.2353 53.8542V51.5625C58.2353 45.9725 53.3911 41.25 47.6574 41.25ZM2.27482 51.5625C2.27482 47.2146 6.07714 43.5417 10.5779 43.5417C13.0406 43.5417 15.483 44.6409 16.9949 46.3883C15.9952 48.3336 15.4687 50.5017 15.4687 52.7083H2.27482V51.5625ZM29.1176 41.25C35.4467 41.25 40.4917 46.4233 40.4917 52.7083H17.7436C17.7436 46.3396 22.8917 41.25 29.1176 41.25ZM55.9605 52.7083H42.7665C42.7665 50.5017 42.24 48.3336 41.2404 46.3883C42.7523 44.6409 45.1946 43.5417 47.6574 43.5417C52.1581 43.5417 55.9605 47.2146 55.9605 51.5625V52.7083Z" fill="white"/>
<path d="M17.4023 34.375C17.4023 30.5839 14.3411 27.5 10.5779 27.5C6.81467 27.5 3.75345 30.5839 3.75345 34.375C3.75345 38.1661 6.81467 41.25 10.5779 41.25C14.3411 41.25 17.4023 38.1661 17.4023 34.375ZM10.5779 38.9583C8.06938 38.9583 6.02826 36.9021 6.02826 34.375C6.02826 31.8479 8.06938 29.7917 10.5779 29.7917C13.0864 29.7917 15.1275 31.8479 15.1275 34.375C15.1275 36.9021 13.0864 38.9583 10.5779 38.9583Z" fill="white"/>
<path d="M38.2169 29.7917C38.2169 24.737 34.1351 20.625 29.1176 20.625C24.1002 20.625 20.0184 24.737 20.0184 29.7917C20.0184 34.8463 24.1002 38.9583 29.1176 38.9583C34.1351 38.9583 38.2169 34.8463 38.2169 29.7917ZM29.1176 36.6667C25.3544 36.6667 22.2932 33.5828 22.2932 29.7917C22.2932 26.0006 25.3544 22.9167 29.1176 22.9167C32.8809 22.9167 35.9421 26.0006 35.9421 29.7917C35.9421 33.5828 32.8809 36.6667 29.1176 36.6667Z" fill="white"/>
<path d="M38.1192 6.66419C37.9854 6.24927 37.6295 5.94714 37.2008 5.88448L32.2948 5.16699L30.0982 0.642741C29.9076 0.249308 29.5113 0 29.0768 0C28.6422 0 28.2459 0.249308 28.0549 0.642293L25.8587 5.16699L20.9527 5.88403C20.524 5.9467 20.1681 6.24927 20.0344 6.66419C19.9006 7.0791 20.0122 7.5343 20.3223 7.83866L23.8749 11.3267L23.0365 16.2525C22.9632 16.6822 23.1387 17.1168 23.4893 17.3728C23.8376 17.6279 24.3014 17.6642 24.6871 17.4601L29.0768 15.1348L33.4682 17.4601C33.8512 17.6633 34.3155 17.6293 34.6661 17.3728C35.0162 17.1163 35.1917 16.6822 35.1184 16.252L34.2791 11.3267L37.8313 7.83866C38.1414 7.5343 38.2529 7.0791 38.1192 6.66419ZM32.2624 10.1062C31.9945 10.3693 31.8719 10.7489 31.9354 11.1204L32.4859 14.3516L29.6059 12.8262C29.2745 12.6507 28.8786 12.6507 28.5472 12.8262L25.6681 14.3516L26.2181 11.1204C26.2812 10.7485 26.1586 10.3693 25.8907 10.1062L23.5608 7.81852L26.7797 7.34766C27.1521 7.2935 27.4733 7.05717 27.6381 6.717L29.0768 3.75395L30.515 6.717C30.6802 7.05762 31.0015 7.2935 31.3734 7.34766L34.5928 7.81852L32.2624 10.1062Z" fill="white"/>
<path d="M55.1199 15.2521C54.9861 14.8372 54.6302 14.5351 54.2015 14.4724L50.8777 13.9859L49.3915 10.9512C49.2 10.56 48.805 10.3125 48.3718 10.3125C47.9391 10.3125 47.5432 10.56 47.3517 10.9512L45.8646 13.9859L42.5404 14.4724C42.1121 14.5351 41.7562 14.8372 41.6225 15.2521C41.4883 15.667 41.5998 16.1222 41.9099 16.4266L44.3149 18.7894L43.7471 22.124C43.6742 22.5537 43.8493 22.9878 44.1998 23.2443C44.55 23.5008 45.0142 23.5348 45.3972 23.332L48.3714 21.7579L51.3446 23.332C51.7276 23.5348 52.1924 23.5008 52.5425 23.2443C52.8926 22.9883 53.0676 22.5537 52.9948 22.124L52.4269 18.7894L54.8324 16.4266C55.1425 16.1222 55.2536 15.667 55.1199 15.2521ZM50.4112 17.5693C50.1428 17.8325 50.0206 18.2116 50.0842 18.5831L50.3632 20.2231L48.901 19.4492C48.5695 19.2737 48.1737 19.2737 47.8427 19.4492L46.3791 20.2235L46.6586 18.5831C46.7217 18.2116 46.5995 17.8325 46.3316 17.5693L45.148 16.4065L46.7835 16.1674C47.154 16.1133 47.4743 15.8787 47.6401 15.5408L48.3714 14.0481L49.1023 15.5404C49.268 15.8787 49.5883 16.1133 49.9589 16.1674L51.5943 16.4065L50.4112 17.5693Z" fill="white"/>
<path d="M16.448 15.2521C16.3143 14.8372 15.9584 14.5351 15.5296 14.4724L12.2058 13.9859L10.7196 10.9512C10.5281 10.56 10.1332 10.3125 9.69996 10.3125C9.26676 10.3125 8.87134 10.56 8.67984 10.9512L7.19277 13.9859L3.86852 14.4724C3.44021 14.5351 3.08433 14.8372 2.9506 15.2521C2.81642 15.667 2.92794 16.1222 3.23806 16.4266L5.64305 18.7894L5.07568 22.124C5.00237 22.5537 5.17787 22.9878 5.52798 23.2443C5.87809 23.5008 6.34238 23.5348 6.72581 23.332L9.69951 21.7579L12.6728 23.332C13.0584 23.5361 13.5223 23.4994 13.8706 23.2443C14.2207 22.9883 14.3962 22.5537 14.3229 22.124L13.7551 18.7894L16.1605 16.4266C16.4706 16.1222 16.5817 15.667 16.448 15.2521ZM11.7388 17.5693C11.4709 17.8325 11.3488 18.2116 11.4118 18.5831L11.6913 20.2231L10.2287 19.4492C9.89767 19.2737 9.5018 19.2737 9.1708 19.4492L7.70683 20.2235L7.98629 18.5831C8.04983 18.2116 7.9272 17.8325 7.65929 17.5693L6.47567 16.4065L8.11158 16.1674C8.48169 16.1133 8.80203 15.8787 8.96775 15.5408L9.69907 14.0481L10.4299 15.5404C10.5957 15.8787 10.916 16.1133 11.2866 16.1674L12.922 16.4065L11.7388 17.5693Z" fill="white"/>
<path d="M34.1018 45.042C33.5766 44.6942 32.8715 44.8415 32.5268 45.3705C32.1815 45.8991 32.3277 46.6095 32.8529 46.9572C33.9045 47.6532 34.7451 48.6236 35.2836 49.7632C35.5529 50.3339 36.2309 50.5778 36.7991 50.3052C37.3665 50.0335 37.6073 49.3496 37.3376 48.7785C36.6205 47.2603 35.5013 45.9681 34.1018 45.042Z" fill="white"/>
</svg>
