<svg width="100" height="100" viewBox="0 0 100 100" fill="none" xmlns="http://www.w3.org/2000/svg">
<g clip-path="url(#clip0_470_1893)">
<path d="M68.75 28.125H31.25V75H68.75V28.125Z" stroke="#6C6D71" stroke-width="2" stroke-linecap="round" stroke-linejoin="round"/>
<path d="M59.375 39.0625H40.625V75H59.375V39.0625Z" stroke="#6C6D71" stroke-width="2" stroke-linecap="round" stroke-linejoin="round"/>
<path d="M54.6875 59.375C55.5504 59.375 56.25 58.6754 56.25 57.8125C56.25 56.9496 55.5504 56.25 54.6875 56.25C53.8246 56.25 53.125 56.9496 53.125 57.8125C53.125 58.6754 53.8246 59.375 54.6875 59.375Z" fill="#6C6D71"/>
<path d="M68.75 28.125L92.1875 4.6875" stroke="#6C6D71" stroke-width="2" stroke-linecap="round" stroke-linejoin="round"/>
<path d="M89.0625 95.3125L75 81.25L68.75 75" stroke="#6C6D71" stroke-width="2" stroke-linecap="round" stroke-linejoin="round"/>
<path d="M31.25 75L25 81.25L10.9375 95.3125" stroke="#6C6D71" stroke-width="2" stroke-linecap="round" stroke-linejoin="round"/>
<path d="M31.25 28.125L7.8125 4.6875" stroke="#6C6D71" stroke-width="2" stroke-linecap="round" stroke-linejoin="round"/>
<path d="M75 81.25V40.625L85.9375 31.25V92.1875" stroke="#6C6D71" stroke-width="2" stroke-linecap="round" stroke-linejoin="round"/>
<path d="M23.5781 75.2031L10.3281 87.4219V74.25L23.5781 67.4375V75.2031Z" stroke="#6C6D71" stroke-width="2" stroke-linecap="round" stroke-linejoin="round"/>
<path d="M50 17.1875C51.7259 17.1875 53.125 15.7884 53.125 14.0625C53.125 12.3366 51.7259 10.9375 50 10.9375C48.2741 10.9375 46.875 12.3366 46.875 14.0625C46.875 15.7884 48.2741 17.1875 50 17.1875Z" stroke="#6C6D71" stroke-width="2" stroke-linecap="round" stroke-linejoin="round"/>
<path d="M50 6.25V10.9375" stroke="#6C6D71" stroke-width="2" stroke-linecap="round" stroke-linejoin="round"/>
</g>
<defs>
<clipPath id="clip0_470_1893">
<rect width="100" height="100" fill="white"/>
</clipPath>
</defs>
</svg>
