<svg width="100" height="100" viewBox="0 0 100 100" fill="none" xmlns="http://www.w3.org/2000/svg">
<path d="M94.1223 0C92.5708 0 91.0892 0.598884 89.9669 1.72262L50.9855 40.704C48.7329 40.3821 46.4354 41.0914 44.7556 42.7733L42.8943 44.6347C36.3357 41.5094 28.4007 42.2419 22.1847 47.0236C19.0165 49.5058 18.4428 50.679 15.5495 52.8059C11.3687 55.8824 6.879 57.4613 3.85078 58.2434C0.733107 59.0446 -0.878958 62.4857 0.493631 65.3954C0.50457 65.4183 1.44157 67.3188 1.45583 67.3479C2.38717 69.2622 4.58874 70.4955 6.90751 70.0869C6.92959 70.0831 6.9458 70.0826 6.95244 70.082C5.47261 72.0911 5.59763 74.4636 6.80868 76.1802C8.83562 79.0451 10.9647 81.5536 11.3323 81.9214C12.8204 83.4092 15.0298 83.8409 16.9837 83.0172C16.1023 85.0812 16.6539 87.4551 18.3576 88.9253C20.0816 90.4114 21.9193 91.8469 23.8216 93.1929C25.6276 94.4673 28.0376 94.4382 29.8165 93.1228L29.9204 93.0472C29.9196 93.0529 29.919 93.0579 29.919 93.0579C29.5315 95.3836 30.7201 97.592 32.6521 98.5448C35.2383 99.8195 34.4476 99.4335 34.6046 99.507C37.5203 100.883 40.957 99.2605 41.7559 96.1522C41.8876 95.6428 42.038 95.1089 42.2026 94.5655C42.4372 93.7912 41.9997 92.9734 41.2254 92.7386C40.4513 92.5036 39.6332 92.9413 39.3985 93.7158C39.2223 94.2975 39.0609 94.8704 38.9185 95.4207C38.5767 96.7511 37.1111 97.4421 35.8647 96.8618L33.9593 95.9225C33.0938 95.4736 32.6423 94.5395 32.807 93.5518C33.2635 90.949 30.3037 89.1205 28.1828 90.6872L28.0769 90.7652C27.3135 91.3297 26.2822 91.3431 25.5124 90.7999C23.6876 89.5088 21.9242 88.1315 20.2713 86.7066C19.5378 86.0737 19.2997 85.0529 19.6771 84.1704C20.7252 81.7374 18.2482 79.2809 15.8351 80.321C15.0003 80.6767 14.0461 80.4917 13.405 79.8505C13.1061 79.5471 11.0958 77.1668 9.20148 74.4896C8.65709 73.7181 8.67057 72.6869 9.23683 71.9212L9.31165 71.8196C10.8518 69.7351 9.13409 66.7459 6.41196 67.1995C5.46168 67.368 4.52409 66.9018 4.07776 66.041L3.13861 64.1359C2.55808 62.8897 3.24858 61.4239 4.58151 61.0813C7.61461 60.2978 12.0043 58.7702 16.2516 55.8933L44.1079 83.7497C43.3875 84.8124 42.7163 85.9309 42.1011 87.1041C41.7252 87.8205 42.0014 88.7062 42.7179 89.0818C43.4342 89.4576 44.32 89.1814 44.6956 88.4649C46.1383 85.7145 47.8996 83.29 49.9307 81.2592C51.0753 80.1147 52.1618 78.8765 53.1589 77.5803C57.7736 71.595 58.4278 63.6515 55.3488 57.1227L57.2257 55.2458C58.8886 53.5853 59.6213 51.2966 59.2958 49.0151L70.2902 38.021C70.8623 37.4488 70.8623 36.5212 70.2902 35.9493C69.7181 35.3771 68.7907 35.3771 68.2183 35.9493L58.1524 46.0151C57.9084 45.649 57.698 45.3855 57.3519 45.0177L55.1144 42.7753C54.7657 42.4257 54.3874 42.1161 53.9854 41.8481L92.0393 3.79391C93.1902 2.64165 95.0529 2.64048 96.2055 3.7945C96.7628 4.35178 97.0697 5.09169 97.0697 5.87809C97.0697 6.69399 96.7452 7.40577 96.6218 7.54563L73.0532 31.1142C72.481 31.6864 72.481 32.614 73.0532 33.1859C73.6255 33.758 74.5529 33.758 75.125 33.1859L98.6937 9.61711C99.4627 8.8481 99.9996 7.31045 99.9996 5.87789C99.9996 2.63325 97.3711 0 94.1223 0ZM51.6383 74.6551L33.4571 56.4739C32.8849 55.9017 31.9573 55.9017 31.3854 56.4739C30.8133 57.046 30.8133 57.9736 31.3854 58.5455L49.8508 77.0109C48.095 79.0938 47.5633 79.3317 45.8817 81.3787L18.628 54.1254C20.3447 52.7149 21.2036 51.6494 22.986 50.1465L26.5527 53.7132C27.1248 54.2854 28.0525 54.2854 28.6244 53.7132C29.1965 53.1411 29.1965 52.2135 28.6244 51.6416L25.3596 48.3768C32.0923 44.1217 40.6656 44.947 46.3065 50.5879L49.4123 53.6937C55.0251 59.3065 55.8814 68.09 51.6383 74.6551ZM55.1564 46.9601C56.8487 48.6481 56.8937 51.4367 55.155 53.173L53.8467 54.4813C53.1611 53.4708 52.3743 52.5122 51.4842 51.622C48.3442 48.4821 47.4484 47.4623 45.5264 46.1465L46.8283 44.8446C48.5511 43.1197 51.3386 43.1382 53.0419 44.8452L55.1564 46.9601Z" fill="#6C6D71"/>
</svg>
