<svg width="54" height="54" viewBox="0 0 54 54" fill="none" xmlns="http://www.w3.org/2000/svg">
<path d="M28.4163 13.5334C27.8377 12.3718 26.1679 12.3606 25.5838 13.5334L14.5095 35.7873C14.2583 36.2921 14.2947 36.8923 14.6051 37.363L20.6719 46.5643V52.418C20.6719 53.2917 21.3802 54 22.2539 54H31.7461C32.6198 54 33.3281 53.2917 33.3281 52.418V46.5643L39.3949 37.363C39.7053 36.8923 39.7417 36.2921 39.4905 35.7873L28.4163 13.5334ZM30.1641 50.8359H23.8359V47.6719H30.1641V50.8359ZM30.8943 44.5078H23.1058L17.748 36.3817L25.418 20.9685V36.4922C25.418 37.3659 26.1263 38.0742 27 38.0742C27.8737 38.0742 28.582 37.3659 28.582 36.4922V20.9685L36.2521 36.3817L30.8943 44.5078Z" fill="white"/>
<path d="M49.2539 0C47.1915 0 45.433 1.32268 44.7799 3.16406H31.7461V1.58203C31.7461 0.708328 31.0378 0 30.1641 0H23.8359C22.9622 0 22.2539 0.708328 22.2539 1.58203V3.16406H9.22008C8.56702 1.32268 6.80854 0 4.74609 0C2.1291 0 0 2.1291 0 4.74609C0 7.36309 2.1291 9.49219 4.74609 9.49219C6.80854 9.49219 8.56702 8.16845 9.22008 6.32707H15.1382C7.7664 10.5607 3.16406 18.3818 3.16406 26.8945C3.16406 27.7682 3.87239 28.4766 4.74609 28.4766C5.6198 28.4766 6.32812 27.7682 6.32812 26.8945C6.32812 17.3492 13.0569 9.04711 22.2539 6.87846V7.91016C22.2539 8.78386 22.9622 9.49219 23.8359 9.49219H30.1641C31.0378 9.49219 31.7461 8.78386 31.7461 7.91016V6.87836C40.9431 9.04711 47.6719 17.3492 47.6719 26.8945C47.6719 27.7682 48.3802 28.4766 49.2539 28.4766C50.1276 28.4766 50.8359 27.7682 50.8359 26.8945C50.8359 18.3927 46.2428 10.567 38.8618 6.32812H44.7799C45.433 8.1695 47.1915 9.49219 49.2539 9.49219C51.8709 9.49219 54 7.36309 54 4.74609C54 2.1291 51.8709 0 49.2539 0ZM4.74609 6.32812C3.87376 6.32812 3.16406 5.61843 3.16406 4.74609C3.16406 3.87376 3.87376 3.16406 4.74609 3.16406C5.61843 3.16406 6.32812 3.87376 6.32812 4.74609C6.32812 5.61843 5.61843 6.32812 4.74609 6.32812ZM28.582 6.32812H25.418V3.16406H28.582V6.32812ZM49.2539 6.32812C48.3816 6.32812 47.6719 5.61843 47.6719 4.74609C47.6719 3.87376 48.3816 3.16406 49.2539 3.16406C50.1262 3.16406 50.8359 3.87376 50.8359 4.74609C50.8359 5.61843 50.1262 6.32812 49.2539 6.32812Z" fill="white"/>
</svg>
