<svg width="57" height="65" viewBox="0 0 57 65" fill="none" xmlns="http://www.w3.org/2000/svg">
<path d="M57 17.2761C57 16.598 56.6334 15.9663 56.0431 15.627L29.1379 0.170149C28.7432 -0.0567164 28.2568 -0.0567164 27.8621 0.170149L0.637929 15.8102C0.243179 16.0369 0 16.4561 0 16.9096V48.1895C0 48.643 0.243179 49.0622 0.637929 49.2889L27.5429 64.7455C27.838 64.9152 28.169 65 28.5001 65C28.831 65 29.1619 64.9152 29.4569 64.7456L56.0429 49.4722C56.6332 49.1332 57 48.5013 57 47.823V34.8566C57 34.1554 56.4287 33.5871 55.7241 33.5871C55.0196 33.5871 54.4483 34.1556 54.4483 34.8566V38.5985L43.3847 44.6604C42.7035 44.0301 41.7915 43.6435 40.7902 43.6435C38.6872 43.6435 36.9764 45.3459 36.9764 47.4384C36.9764 49.531 38.6872 51.2333 40.7902 51.2333C42.8932 51.2333 44.604 49.531 44.604 47.4384C44.604 47.2595 44.5906 47.0838 44.5664 46.9116L54.4483 41.4971V47.4566L29.6908 61.6795V45.8188L39.4068 40.8C40.2532 40.3627 40.779 39.5016 40.779 38.5527L40.7752 34.8153L43.784 33.2613C44.4625 33.8784 45.3651 34.2555 46.3545 34.2555C48.4575 34.2555 50.1683 32.5531 50.1683 30.4606C50.1683 28.368 48.4575 26.6657 46.3545 26.6657C44.2515 26.6657 42.5407 28.368 42.5407 30.4606C42.5407 30.651 42.5552 30.838 42.5825 31.0209L39.5996 32.5616C38.7531 32.9988 38.2271 33.86 38.2271 34.8091L38.2309 38.5466L29.6906 42.958V41.848C29.6906 41.8465 29.6906 41.845 29.6906 41.8433V31.7861L54.4482 18.9991V23.2885C54.4482 23.9896 55.0195 24.558 55.724 24.558C56.4285 24.558 56.9999 23.9895 56.9999 23.2885L57 17.2761ZM40.7902 48.6942C40.0944 48.6942 39.5281 48.1308 39.5281 47.4384C39.5281 46.746 40.0944 46.1826 40.7902 46.1826C41.4861 46.1826 42.0523 46.746 42.0523 47.4384C42.0523 48.131 41.4861 48.6942 40.7902 48.6942ZM46.3546 29.2048C47.0505 29.2048 47.6167 29.7682 47.6167 30.4606C47.6167 31.153 47.0505 31.7164 46.3546 31.7164C45.6588 31.7164 45.0925 31.153 45.0925 30.4606C45.0925 29.7682 45.6588 29.2048 46.3546 29.2048ZM28.5 2.73562L53.0693 16.8504L45.4346 20.7937C45.3757 20.7442 45.312 20.6988 45.2425 20.6594L35.8602 15.352C35.9028 15.1251 35.9261 14.8917 35.9261 14.6527C35.9261 12.5602 34.2153 10.8578 32.1123 10.8578C30.0093 10.8578 28.2985 12.5602 28.2985 14.6527C28.2985 16.7453 30.0093 18.4476 32.1123 18.4476C33.0509 18.4476 33.9108 18.1079 34.5759 17.5464L42.7591 22.1755L28.4164 29.5833L3.92454 16.854L10.103 13.3045L15.5706 16.1462C15.5604 16.2591 15.5544 16.3729 15.5544 16.4883C15.5544 18.5809 17.2652 20.2832 19.3682 20.2832C21.4712 20.2832 23.182 18.5809 23.182 16.4883C23.182 14.3958 21.4712 12.6935 19.3682 12.6935C18.3007 12.6935 17.3347 13.1327 16.6418 13.8383L12.7208 11.8005L28.5 2.73562ZM33.3744 14.6527C33.3744 15.3451 32.8082 15.9086 32.1123 15.9086C31.4165 15.9086 30.8503 15.3451 30.8503 14.6527C30.8503 13.9603 31.4165 13.3969 32.1123 13.3969C32.8082 13.3969 33.3744 13.9603 33.3744 14.6527ZM19.368 15.2325C20.0639 15.2325 20.6301 15.7959 20.6301 16.4883C20.6301 17.1807 20.0639 17.7442 19.368 17.7442C18.6722 17.7442 18.106 17.1807 18.106 16.4883C18.106 15.7959 18.6722 15.2325 19.368 15.2325ZM2.55172 41.8921L14.7302 48.2216C14.7129 48.3675 14.7031 48.5156 14.7031 48.6661C14.7031 50.7586 16.4139 52.461 18.5169 52.461C20.6199 52.461 22.3307 50.7586 22.3307 48.6661C22.3307 46.5735 20.6199 44.8712 18.5169 44.8712C17.4856 44.8712 16.5492 45.2812 15.862 45.9454L2.55172 39.0276V19.0049L27.139 31.7837V39.7689L13.7082 32.7885C13.7265 32.6385 13.7369 32.486 13.7369 32.3311C13.7369 30.2385 12.0261 28.5362 9.92312 28.5362C7.82012 28.5362 6.10932 30.2385 6.10932 32.3311C6.10932 34.4237 7.82012 36.126 9.92312 36.126C10.9498 36.126 11.8823 35.7195 12.5686 35.0607L27.139 42.6335V61.5817L2.55172 47.4566V41.8921ZM18.5169 47.4104C19.2128 47.4104 19.779 47.9738 19.779 48.6662C19.779 49.3586 19.2128 49.922 18.5169 49.922C17.8211 49.922 17.2548 49.3586 17.2548 48.6662C17.2548 47.9738 17.8211 47.4104 18.5169 47.4104ZM11.1852 32.3312C11.1852 33.0236 10.619 33.5871 9.92312 33.5871C9.22726 33.5871 8.66104 33.0236 8.66104 32.3312C8.66104 31.6388 9.22726 31.0754 9.92312 31.0754C10.619 31.0754 11.1852 31.6388 11.1852 32.3312Z" fill="white"/>
<path d="M55.6365 30.3525C56.3411 30.3525 56.9123 29.7841 56.9123 29.083C56.9123 28.3819 56.3411 27.8135 55.6365 27.8135C54.9319 27.8135 54.3606 28.3819 54.3606 29.083C54.3606 29.7841 54.9319 30.3525 55.6365 30.3525Z" fill="white"/>
</svg>
