<svg width="32" height="32" viewBox="0 0 32 32" fill="none" xmlns="http://www.w3.org/2000/svg">
<g clip-path="url(#clip0_392_532)">
<path d="M7.62454 0C7.92454 0.15 7.94954 0.408333 7.94954 0.708333C7.94121 8.34167 7.94954 15.975 7.94954 23.6167C7.94954 23.75 7.94954 23.8833 7.94954 24.05C8.11621 24.05 8.24954 24.05 8.38288 24.05C13.4162 24.05 18.4412 24.05 23.4745 24.05C23.9829 24.05 24.1995 24.2 24.1912 24.525C24.1829 24.8417 23.9662 24.9833 23.4829 24.9833C18.2329 24.9833 12.9829 24.9833 7.73288 24.9833C7.14954 24.9833 7.00788 24.85 7.00788 24.2667C7.00788 16.6333 7.00788 9 7.00788 1.35833C7.00788 1.225 7.00788 1.09167 7.00788 0.941667C4.97454 0.941667 2.97454 0.941667 0.949544 0.941667C0.949544 1.78333 0.949544 2.60833 0.949544 3.49167C1.33288 3.49167 1.72454 3.49167 2.11621 3.49167C2.24121 3.49167 2.36621 3.48333 2.49121 3.5C2.75788 3.525 2.93288 3.725 2.93288 3.975C2.92454 4.225 2.74121 4.41667 2.47454 4.425C2.09121 4.43333 1.70788 4.425 1.31621 4.43333C1.19954 4.43333 1.09121 4.43333 0.957878 4.43333C0.957878 5.45833 0.957878 6.45833 0.957878 7.5C1.57454 7.5 2.18288 7.5 2.79954 7.5C3.00788 7.5 3.21621 7.49167 3.42454 7.5C3.74121 7.50833 3.94121 7.69167 3.94121 7.96667C3.94121 8.24167 3.74954 8.425 3.43288 8.43333C2.73288 8.44167 2.04121 8.43333 1.34121 8.43333C1.22454 8.43333 1.11621 8.43333 0.974544 8.43333C0.974544 9.45 0.974544 10.45 0.974544 11.5C1.37454 11.5 1.77454 11.5 2.17454 11.5C2.29954 11.5 2.42454 11.4917 2.54954 11.5167C2.80788 11.5667 2.95788 11.7333 2.94121 12C2.92454 12.2667 2.76621 12.425 2.49954 12.4333C2.07454 12.45 1.64954 12.4417 1.21621 12.4417C1.13288 12.4417 1.05788 12.45 0.957878 12.4583C0.957878 13.4667 0.957878 14.4667 0.957878 15.5083C1.09121 15.5083 1.22454 15.5083 1.35788 15.5083C2.02454 15.5083 2.69121 15.5083 3.35788 15.5083C3.74121 15.5083 3.94121 15.675 3.94121 15.9667C3.94954 16.2667 3.74121 16.45 3.34954 16.45C2.67454 16.4583 1.99954 16.45 1.31621 16.45C1.20788 16.45 1.09121 16.45 0.957878 16.45C0.957878 17.475 0.957878 18.475 0.957878 19.5167C1.37454 19.5167 1.79954 19.5167 2.22454 19.5167C2.72454 19.5167 2.93288 19.65 2.94121 19.9667C2.94954 20.3 2.71621 20.4583 2.22454 20.4583C1.80788 20.4583 1.39121 20.4583 0.957878 20.4583C0.957878 21.4833 0.957878 22.475 0.957878 23.525C1.04954 23.525 1.14954 23.525 1.24954 23.525C1.91621 23.525 2.58288 23.525 3.24954 23.525C3.72454 23.525 3.94954 23.675 3.94121 24C3.93288 24.3167 3.71621 24.4583 3.23288 24.4667C2.48288 24.4667 1.73288 24.4667 0.966211 24.4667C0.966211 25.4917 0.966211 26.4917 0.966211 27.5333C1.43288 27.5333 1.89954 27.5333 2.36621 27.5333C2.73288 27.5333 2.94121 27.7 2.94121 28C2.94121 28.2917 2.73288 28.4667 2.36621 28.475C1.89954 28.475 1.43288 28.475 0.957878 28.475C0.957878 29.3417 0.957878 30.1667 0.957878 31.0167C1.79121 31.0167 2.63288 31.0167 3.50788 31.0167C3.50788 30.5333 3.49954 30.05 3.50788 29.5583C3.51621 29.2083 3.75788 28.975 4.05788 29.0417C4.31621 29.1 4.44121 29.275 4.44121 29.5417C4.44121 30.025 4.44121 30.5167 4.44121 31.0167C5.46621 31.0167 6.45788 31.0167 7.50788 31.0167C7.50788 30.8167 7.50788 30.6167 7.50788 30.4167C7.50788 29.9583 7.49954 29.5 7.50788 29.0417C7.51621 28.725 7.70788 28.5333 7.98288 28.5333C8.25788 28.5333 8.43288 28.7333 8.44121 29.0583C8.44954 29.7 8.44121 30.35 8.44121 31.0167C9.46621 31.0167 10.4662 31.0167 11.5079 31.0167C11.5079 30.6 11.5079 30.1917 11.5079 29.775C11.5079 29.675 11.4995 29.5667 11.5162 29.4667C11.5579 29.1917 11.7579 29.025 12.0079 29.0417C12.2579 29.0583 12.4329 29.2333 12.4412 29.525C12.4495 29.9083 12.4412 30.2917 12.4495 30.6833C12.4495 30.7917 12.4495 30.9083 12.4495 31.0333C13.4829 31.0333 14.4745 31.0333 15.5245 31.0333C15.5245 30.5667 15.5245 30.1 15.5245 29.6333C15.5245 29.425 15.5162 29.2167 15.5329 29.0083C15.5495 28.725 15.7329 28.55 15.9829 28.5417C16.2495 28.5333 16.4495 28.7167 16.4579 29.0083C16.4745 29.5583 16.4662 30.1083 16.4662 30.6667C16.4662 30.7833 16.4662 30.8917 16.4662 31.025C17.4912 31.025 18.4829 31.025 19.5412 31.025C19.5412 30.6833 19.5412 30.3333 19.5412 29.9833C19.5412 29.825 19.5329 29.6667 19.5412 29.5167C19.5579 29.2333 19.7329 29.0583 19.9829 29.0417C20.2495 29.0333 20.4495 29.2083 20.4662 29.5C20.4829 29.8333 20.4745 30.1667 20.4745 30.5C20.4745 30.6667 20.4745 30.8333 20.4745 31.0167C21.4995 31.0167 22.4995 31.0167 23.5412 31.0167C23.5412 30.475 23.5412 29.9333 23.5412 29.3917C23.5412 29.275 23.5412 29.1583 23.5412 29.05C23.5495 28.725 23.7245 28.5333 24.0079 28.5333C24.2829 28.5333 24.4745 28.725 24.4829 29.0417C24.4912 29.5833 24.4829 30.125 24.4829 30.6667C24.4829 30.775 24.4829 30.8917 24.4829 31.0167C25.5162 31.0167 26.5079 31.0167 27.5495 31.0167C27.5495 30.5333 27.5495 30.0417 27.5495 29.5583C27.5495 29.225 27.7412 29.0167 28.0329 29.0333C28.2995 29.0417 28.4745 29.2417 28.4912 29.5667C28.4995 29.8083 28.4912 30.0417 28.4912 30.2833C28.4912 30.525 28.4912 30.7583 28.4912 31.0167C29.3495 31.0167 30.1829 31.0167 31.0412 31.0167C31.0412 29.0083 31.0412 27.0167 31.0412 24.9667C30.9412 24.9667 30.8245 24.9667 30.7162 24.9667C29.2162 24.9667 27.7162 24.9667 26.2162 24.9667C26.0912 24.9667 25.9662 24.9583 25.8495 24.925C25.6245 24.85 25.4912 24.6583 25.5662 24.4417C25.6245 24.2833 25.7995 24.1583 25.9412 24.05C25.9912 24.0083 26.0995 24.0333 26.1829 24.0333C27.8995 24.0333 29.6162 24.0333 31.3412 24.025C31.6245 24.025 31.8495 24.0917 31.9912 24.35C31.9912 26.8917 31.9912 29.4333 31.9912 31.975C21.3245 31.975 10.6579 31.975 -0.00878906 31.975C-0.000455729 21.3333 -0.000455729 10.6667 -0.000455729 0C2.54121 0 5.08288 0 7.62454 0Z" fill="#02000F"/>
<path d="M18.9828 20.4834C16.7328 20.4834 14.4828 20.4834 12.2328 20.4834C11.6495 20.4834 11.5161 20.35 11.5161 19.7667C11.5161 16.2584 11.5161 12.75 11.5078 9.24171C11.5078 8.90838 11.6078 8.67504 11.8745 8.47504C14.1078 6.73338 16.3328 4.98338 18.5578 3.23338C18.9411 2.93338 19.0661 2.93338 19.4328 3.22504C21.6661 4.98338 23.8995 6.74171 26.1411 8.48338C26.3995 8.68338 26.4995 8.90838 26.4995 9.22504C26.4911 12.7417 26.4911 16.2667 26.4911 19.7834C26.4911 20.3417 26.3495 20.4917 25.7911 20.4917C23.5245 20.4834 21.2578 20.4834 18.9828 20.4834ZM25.5328 19.5167C25.5411 19.4417 25.5495 19.3917 25.5495 19.3417C25.5495 16.0334 25.5495 12.7167 25.5411 9.40838C25.5411 9.30004 25.4578 9.15004 25.3661 9.08338C23.3078 7.45838 21.2411 5.84171 19.1828 4.20838C19.0411 4.09171 18.9495 4.10004 18.8078 4.20838C16.7661 5.83338 14.7078 7.44171 12.6661 9.06671C12.5578 9.15004 12.4661 9.34171 12.4661 9.47504C12.4578 12.725 12.4578 15.975 12.4495 19.225C12.4495 19.5 12.5495 19.55 12.7911 19.55C13.7495 19.5417 14.7078 19.5334 15.6661 19.55C15.9495 19.5584 16.0328 19.4834 16.0328 19.1917C16.0245 16.8667 16.0245 14.55 16.0245 12.225C16.0245 11.6584 16.1578 11.525 16.7245 11.525C18.2328 11.525 19.7411 11.525 21.2578 11.525C21.8578 11.525 21.9828 11.6584 21.9828 12.2667C21.9828 14.5584 21.9828 16.85 21.9828 19.1417C21.9828 19.2667 21.9828 19.3917 21.9828 19.525C23.1828 19.5167 24.3578 19.5167 25.5328 19.5167ZM21.0245 19.5167C21.0245 17.15 21.0245 14.825 21.0245 12.4834C20.9578 12.475 20.9078 12.4584 20.8578 12.4584C19.6411 12.4584 18.4245 12.4584 17.2078 12.45C16.9661 12.45 16.9745 12.5834 16.9745 12.75C16.9745 14.9167 16.9828 17.0834 16.9745 19.2417C16.9745 19.475 17.0411 19.5417 17.2745 19.5417C18.4411 19.5334 19.6078 19.5334 20.7745 19.5334C20.8495 19.5417 20.9245 19.525 21.0245 19.5167Z" fill="#02000F"/>
<path d="M29.5407 3.94165C29.3491 3.94165 29.1824 3.94998 29.0241 3.94165C28.7491 3.92498 28.5741 3.73332 28.5657 3.48332C28.5657 3.23332 28.7407 3.01665 29.0074 3.01665C29.6824 2.99998 30.3574 2.99998 31.0407 3.01665C31.3241 3.02498 31.5157 3.24165 31.4991 3.50832C31.4907 3.75832 31.2991 3.93332 31.0241 3.94998C30.8574 3.95832 30.6991 3.94998 30.5157 3.94998C30.5157 9.15832 30.5157 14.3417 30.5157 19.5583C30.7074 19.5583 30.8824 19.55 31.0574 19.5583C31.3241 19.575 31.4824 19.7333 31.4991 20C31.5157 20.2667 31.3574 20.4667 31.0991 20.475C30.3907 20.5 29.6824 20.5 28.9741 20.475C28.6991 20.4667 28.5324 20.2333 28.5657 19.975C28.5991 19.7083 28.7574 19.5667 29.0241 19.55C29.1907 19.5417 29.3574 19.55 29.5407 19.55C29.5407 14.3333 29.5407 9.15832 29.5407 3.94165Z" fill="#02000F"/>
</g>
<defs>
<clipPath id="clip0_392_532">
<rect width="32" height="32" fill="white"/>
</clipPath>
</defs>
</svg>
