<svg width="34" height="32" viewBox="0 0 34 32" fill="none" xmlns="http://www.w3.org/2000/svg">
<g clip-path="url(#clip0_392_553)">
<path d="M13.9648 27.0314H11.9544C11.8835 27.0314 11.8155 27.0599 11.7652 27.1106C11.715 27.1614 11.6867 27.2303 11.6865 27.3021V29.2606C11.6865 29.3325 11.7147 29.4018 11.765 29.4526C11.8152 29.5035 11.8834 29.5321 11.9544 29.5321H13.9648C14.0359 29.5321 14.104 29.5035 14.1542 29.4526C14.2045 29.4018 14.2327 29.3325 14.2327 29.2606V27.3021C14.2325 27.2303 14.2042 27.1614 14.154 27.1106C14.1038 27.0599 14.0357 27.0314 13.9648 27.0314ZM13.6969 28.989H12.2193V27.5737H13.6954L13.6969 28.989Z" fill="#02000F"/>
<path d="M18.0513 27.0314H16.0394C15.9685 27.0314 15.9005 27.0599 15.8502 27.1106C15.8 27.1614 15.7717 27.2303 15.7715 27.3021V29.2606C15.7715 29.3325 15.7997 29.4018 15.85 29.4526C15.9002 29.5035 15.9684 29.5321 16.0394 29.5321H18.0513C18.1224 29.5321 18.1905 29.5035 18.2408 29.4526C18.291 29.4018 18.3192 29.3325 18.3192 29.2606V27.3021C18.319 27.2303 18.2907 27.1614 18.2405 27.1106C18.1903 27.0599 18.1222 27.0314 18.0513 27.0314ZM17.7834 28.989H16.3073V27.5737H17.7834V28.989Z" fill="#02000F"/>
<path d="M22.0468 27.0314H20.0365C19.9655 27.0314 19.8975 27.0599 19.8473 27.1106C19.7971 27.1614 19.7687 27.2303 19.7686 27.3021V29.2606C19.7686 29.3325 19.7968 29.4018 19.847 29.4526C19.8973 29.5035 19.9654 29.5321 20.0365 29.5321H22.0484C22.1194 29.5321 22.1876 29.5035 22.2378 29.4526C22.2881 29.4018 22.3163 29.3325 22.3163 29.2606V27.3021C22.3162 27.2664 22.3091 27.2311 22.2955 27.1981C22.2819 27.1652 22.262 27.1353 22.237 27.1101C22.212 27.0849 22.1823 27.0651 22.1497 27.0515C22.117 27.038 22.0821 27.0312 22.0468 27.0314ZM21.782 28.9891H20.3028V27.5737H21.782V28.9891Z" fill="#02000F"/>
<path d="M13.9648 23.0145H11.9544C11.8835 23.0145 11.8155 23.043 11.7652 23.0938C11.715 23.1445 11.6867 23.2134 11.6865 23.2853V25.2438C11.6865 25.3158 11.7147 25.3848 11.765 25.4358C11.8152 25.4867 11.8834 25.5153 11.9544 25.5153H13.9648C14.0359 25.5153 14.104 25.4867 14.1542 25.4358C14.2045 25.3848 14.2327 25.3158 14.2327 25.2438V23.2853C14.2325 23.2134 14.2042 23.1445 14.154 23.0938C14.1038 23.043 14.0357 23.0145 13.9648 23.0145ZM13.6969 24.9722H12.2193V23.5568H13.6954L13.6969 24.9722Z" fill="#02000F"/>
<path d="M18.0513 23.0145H16.0394C15.9685 23.0145 15.9005 23.043 15.8502 23.0938C15.8 23.1445 15.7717 23.2134 15.7715 23.2853V25.2438C15.7715 25.3158 15.7997 25.3848 15.85 25.4358C15.9002 25.4867 15.9684 25.5153 16.0394 25.5153H18.0513C18.1224 25.5153 18.1905 25.4867 18.2408 25.4358C18.291 25.3848 18.3192 25.3158 18.3192 25.2438V23.2853C18.319 23.2134 18.2907 23.1445 18.2405 23.0938C18.1903 23.043 18.1222 23.0145 18.0513 23.0145ZM17.7834 24.9722H16.3073V23.5568H17.7834V24.9722Z" fill="#02000F"/>
<path d="M22.0468 23.0145H20.0365C19.9655 23.0145 19.8975 23.043 19.8473 23.0938C19.7971 23.1445 19.7687 23.2134 19.7686 23.2853V25.2438C19.7686 25.2794 19.7755 25.3147 19.789 25.3477C19.8024 25.3806 19.8221 25.4106 19.847 25.4358C19.8719 25.461 19.9014 25.481 19.9339 25.4946C19.9664 25.5083 20.0013 25.5153 20.0365 25.5153H22.0484C22.1194 25.5153 22.1876 25.4867 22.2378 25.4358C22.2881 25.3848 22.3163 25.3158 22.3163 25.2438V23.2853C22.3162 23.2496 22.3091 23.2142 22.2955 23.1813C22.2819 23.1483 22.262 23.1184 22.237 23.0932C22.212 23.0681 22.1823 23.0482 22.1497 23.0347C22.117 23.0212 22.0821 23.0143 22.0468 23.0145ZM21.782 24.9722H20.3028V23.5568H21.782V24.9722Z" fill="#02000F"/>
<path d="M13.9648 18.9999H11.9544C11.8835 18.9999 11.8155 19.0284 11.7652 19.0791C11.715 19.1299 11.6867 19.1988 11.6865 19.2706V21.2307C11.6865 21.3027 11.7147 21.3717 11.765 21.4227C11.8152 21.4736 11.8834 21.5022 11.9544 21.5022H13.9648C14.0359 21.5022 14.104 21.4736 14.1542 21.4227C14.2045 21.3717 14.2327 21.3027 14.2327 21.2307V19.2684C14.2319 19.1969 14.2033 19.1286 14.1532 19.0783C14.103 19.0281 14.0353 18.9999 13.9648 18.9999ZM13.6969 20.9576H12.2193V19.5383H13.6954L13.6969 20.9576Z" fill="#02000F"/>
<path d="M18.0513 18.9999H16.0394C15.9685 18.9999 15.9005 19.0284 15.8502 19.0791C15.8 19.1299 15.7717 19.1988 15.7715 19.2706V21.2307C15.7715 21.3027 15.7997 21.3717 15.85 21.4227C15.9002 21.4736 15.9684 21.5022 16.0394 21.5022H18.0513C18.1224 21.5022 18.1905 21.4736 18.2408 21.4227C18.291 21.3717 18.3192 21.3027 18.3192 21.2307V19.2684C18.3184 19.1969 18.2898 19.1286 18.2397 19.0783C18.1895 19.0281 18.1219 18.9999 18.0513 18.9999ZM17.7834 20.9576H16.3073V19.5383H17.7834V20.9576Z" fill="#02000F"/>
<path d="M22.0468 18.9999H20.0365C19.9655 18.9999 19.8975 19.0284 19.8473 19.0791C19.7971 19.1299 19.7687 19.1988 19.7686 19.2706V21.2307C19.7686 21.3027 19.7968 21.3717 19.847 21.4227C19.8973 21.4736 19.9654 21.5022 20.0365 21.5022H22.0484C22.1189 21.5014 22.1863 21.4724 22.2359 21.4216C22.2854 21.3707 22.3132 21.3021 22.3132 21.2307V19.2684C22.3124 19.1971 22.2841 19.1291 22.2343 19.0789C22.1844 19.0287 22.1171 19.0003 22.0468 18.9999ZM21.782 20.9553H20.3028V19.5383H21.782V20.9553Z" fill="#02000F"/>
<path d="M13.9648 14.9806H11.9544C11.9193 14.9805 11.8844 14.9874 11.852 15.001C11.8194 15.0146 11.7899 15.0345 11.765 15.0596C11.7401 15.0848 11.7204 15.1147 11.7069 15.1476C11.6935 15.1805 11.6865 15.2158 11.6865 15.2514V17.2098C11.6865 17.2818 11.7147 17.3509 11.765 17.4018C11.8152 17.4528 11.8834 17.4814 11.9544 17.4814H13.9648C14.0359 17.4814 14.104 17.4528 14.1542 17.4018C14.2045 17.3509 14.2327 17.2818 14.2327 17.2098V15.2514C14.2327 15.2158 14.2258 15.1805 14.2123 15.1476C14.1988 15.1147 14.1791 15.0848 14.1542 15.0596C14.1293 15.0345 14.0998 15.0146 14.0673 15.001C14.0348 14.9874 13.9999 14.9805 13.9648 14.9806ZM13.6969 16.9383H12.2193V15.5229H13.6954L13.6969 16.9383Z" fill="#02000F"/>
<path d="M18.0513 14.9806H16.0394C16.0043 14.9805 15.9694 14.9874 15.937 15.001C15.9044 15.0146 15.8749 15.0345 15.85 15.0596C15.8251 15.0848 15.8054 15.1147 15.7919 15.1476C15.7784 15.1805 15.7715 15.2158 15.7715 15.2514V17.2098C15.7715 17.2818 15.7997 17.3509 15.85 17.4018C15.9002 17.4528 15.9684 17.4814 16.0394 17.4814H18.0513C18.1224 17.4814 18.1905 17.4528 18.2408 17.4018C18.291 17.3509 18.3192 17.2818 18.3192 17.2098V15.2514C18.3192 15.2158 18.3123 15.1805 18.2988 15.1476C18.2853 15.1147 18.2656 15.0848 18.2407 15.0596C18.2158 15.0345 18.1863 15.0146 18.1538 15.001C18.1213 14.9874 18.0865 14.9805 18.0513 14.9806ZM17.7834 16.9383H16.3073V15.5229H17.7834V16.9383Z" fill="#02000F"/>
<path d="M22.0468 14.9806H20.0365C20.0013 14.9805 19.9665 14.9874 19.934 15.001C19.9015 15.0145 19.8719 15.0345 19.8471 15.0596C19.8222 15.0848 19.8024 15.1147 19.789 15.1476C19.7755 15.1805 19.7686 15.2157 19.7686 15.2514V17.2098C19.7686 17.2818 19.7968 17.3509 19.847 17.4018C19.8973 17.4527 19.9654 17.4814 20.0365 17.4814H22.0484C22.1194 17.4814 22.1876 17.4527 22.2378 17.4018C22.2881 17.3509 22.3163 17.2818 22.3163 17.2098V15.2514C22.3163 15.2156 22.3093 15.1802 22.2957 15.1472C22.2822 15.1142 22.2623 15.0842 22.2372 15.0591C22.2122 15.0339 22.1825 15.014 22.1498 15.0005C22.1171 14.9871 22.0821 14.9803 22.0468 14.9806ZM21.782 16.9383H20.3028V15.5229H21.782V16.9383Z" fill="#02000F"/>
<path d="M33.6971 30.8052H31.0557V28.4614C31.0548 27.6789 30.8077 26.9171 30.3505 26.2867C29.8931 25.6563 29.2493 25.1902 28.5127 24.956V11.456C28.5112 10.0865 27.9739 8.7735 27.0184 7.80509C26.063 6.83672 24.7676 6.29207 23.4165 6.29062H19.5869V5.34447C19.5861 4.68829 19.3456 4.05561 18.9119 3.56842C18.4782 3.08127 17.8819 2.77404 17.238 2.706V0.922928C17.238 0.85092 17.2098 0.781865 17.1595 0.730928C17.1093 0.67999 17.0412 0.651404 16.9701 0.651404C16.899 0.651404 16.8309 0.67999 16.7807 0.730928C16.7304 0.781865 16.7022 0.85092 16.7022 0.922928V2.706C16.0583 2.77404 15.462 3.08127 15.0283 3.56842C14.5946 4.05561 14.3542 4.68829 14.3533 5.34447V7.03063C14.1373 6.74099 13.8648 6.49949 13.5527 6.32111C13.2407 6.14273 12.8958 6.03128 12.5395 5.9937V0.922928C12.5414 0.886103 12.5359 0.849279 12.5234 0.814686C12.5108 0.78006 12.4914 0.748421 12.4664 0.721672C12.4414 0.694891 12.4112 0.67359 12.3778 0.659018C12.3443 0.644446 12.3083 0.636963 12.272 0.636963C12.2356 0.636963 12.1996 0.644446 12.1661 0.659018C12.1327 0.67359 12.1026 0.694891 12.0776 0.721672C12.0525 0.748421 12.0331 0.78006 12.0206 0.814686C12.008 0.849279 12.0025 0.886103 12.0044 0.922928V5.9937C11.4338 6.05432 10.8985 6.30316 10.4809 6.702C10.0633 7.10083 9.78637 7.6276 9.69273 8.2014H9.17894C8.20042 8.20242 7.26228 8.59686 6.57036 9.29816C5.87844 9.99947 5.48929 10.9503 5.48829 11.9422V16.0522C4.75165 16.2863 4.10789 16.7525 3.6505 17.3829C3.19316 18.0133 2.94606 18.7751 2.94512 19.5576V30.8052H0.304033C0.232983 30.8052 0.164841 30.8337 0.114598 30.8846C0.0643561 30.9358 0.0361328 31.0047 0.0361328 31.0769C0.0361328 31.1488 0.0643561 31.2177 0.114598 31.2689C0.164841 31.3198 0.232983 31.3484 0.304033 31.3484H33.6971C33.768 31.3484 33.836 31.3198 33.8865 31.2689C33.9367 31.2177 33.9648 31.1488 33.9648 31.0769C33.9648 31.0047 33.9367 30.9358 33.8865 30.8846C33.836 30.8337 33.768 30.8052 33.6971 30.8052ZM23.4165 6.8337C24.6255 6.83512 25.7846 7.32257 26.6396 8.18913C27.4945 9.05565 27.9754 10.2305 27.9769 11.456V24.7875H26.8893V11.456C26.8883 10.5228 26.5221 9.62804 25.871 8.96812C25.2199 8.3082 24.3372 7.93703 23.4165 7.93601H19.5869V6.8337H23.4165ZM24.3461 26.5483V12.3391C24.3459 12.2672 24.3176 12.1983 24.2674 12.1476C24.2172 12.0968 24.1491 12.0683 24.0782 12.0683H19.5869V8.4791H23.4165C24.1952 8.47992 24.9417 8.79381 25.4924 9.35192C26.043 9.91 26.3527 10.6667 26.3535 11.456V24.9545C25.5165 25.2227 24.8034 25.7888 24.3461 26.5483ZM16.9701 3.23523C17.4758 3.23625 17.9638 3.42365 18.3432 3.76249C18.7226 4.10133 18.9675 4.56847 19.0321 5.07679H14.9081C14.9728 4.56847 15.2176 4.10133 15.597 3.76249C15.9764 3.42365 16.4645 3.23625 16.9701 3.23523ZM14.8884 5.61987H19.0496V12.0722H14.8884V5.61524V5.61987ZM12.2716 6.52601C12.8235 6.52664 13.3526 6.74913 13.7429 7.14468C14.1332 7.54027 14.3527 8.07659 14.3533 8.63601V12.0722H10.1906V10.1183V8.62987C10.1918 8.07097 10.4115 7.53534 10.8015 7.14031C11.1916 6.74525 11.7202 6.52299 12.2716 6.52217V6.52601ZM9.65481 26.0414H3.48015V21.5029H9.65481V26.0414ZM3.48015 26.5837H9.65481V30.8006H3.48015V26.5837ZM9.65481 12.3429V17.6506C9.19749 16.8911 8.48446 16.325 7.64742 16.0568V11.9422C7.64784 11.5305 7.80929 11.1358 8.09641 10.8447C8.3835 10.5535 8.77281 10.3897 9.17894 10.3891H9.65481V12.3429ZM6.02409 15.8891V11.9422C6.02487 11.0943 6.35749 10.2813 6.94896 9.68167C7.54043 9.08204 8.34241 8.74471 9.17894 8.74369H9.65481V9.846H9.17894C8.63086 9.84663 8.10535 10.0676 7.71778 10.4604C7.33021 10.8532 7.11222 11.3858 7.11161 11.9414V15.8845L6.02409 15.8891ZM6.56748 16.4322C7.38597 16.4332 8.17066 16.7632 8.74944 17.3498C9.32818 17.9365 9.6538 18.7318 9.65481 19.5614V20.9591H3.48015V19.5576C3.48115 18.7279 3.80674 17.9326 4.38552 17.346C4.9643 16.7593 5.74898 16.4293 6.56748 16.4283V16.4322ZM10.1906 19.5614V12.6106H23.8103V30.8052H10.1906V19.5614ZM24.3461 30.8052V28.4614C24.3461 27.6315 24.6714 26.8355 25.2504 26.2487C25.8294 25.6618 26.6147 25.3322 27.4334 25.3322C28.2523 25.3322 29.0375 25.6618 29.6165 26.2487C30.1954 26.8355 30.5208 27.6315 30.5208 28.4614V30.8068L24.3461 30.8052Z" fill="#02000F"/>
</g>
<defs>
<clipPath id="clip0_392_553">
<rect width="34" height="32" fill="white"/>
</clipPath>
</defs>
</svg>
