<svg width="33" height="32" viewBox="0 0 33 32" fill="none" xmlns="http://www.w3.org/2000/svg">
<g clip-path="url(#clip0_392_546)">
<path d="M3.86887 12.2187V28.1275M28.4482 11.836V28.1275M2.16653 13.4396L0.455078 11.0433L16.4954 0.455566L32.5356 11.0433L30.8242 13.4305L16.4954 3.53529L2.16653 13.4396ZM31.516 28.1367H0.801009V31.5535H31.5251V28.1367H31.516Z" stroke="#02000F" stroke-miterlimit="10" stroke-linecap="round" stroke-linejoin="round"/>
<path d="M15.822 28.1366V15.1435C15.822 14.7699 15.5125 14.4601 15.1393 14.4601H8.31166C7.93842 14.4601 7.62891 14.7699 7.62891 15.1435V28.1275M25.3806 23.3439V15.1435C25.3806 14.7699 25.0711 14.4601 24.6979 14.4601H19.9186C19.5453 14.4601 19.2358 14.7699 19.2358 15.1435V23.3439M17.5244 23.3439H27.083M19.2267 18.9066H25.3715" stroke="#02000F" stroke-miterlimit="10" stroke-linecap="round" stroke-linejoin="round"/>
<path d="M11.379 21.4669C11.379 21.7494 11.1514 21.9772 10.8692 21.9772H9.84964C9.56743 21.9772 9.33984 21.7494 9.33984 21.4669C9.33984 21.1845 9.56743 20.9567 9.84964 20.9567H10.8692C11.1514 20.9567 11.379 21.1845 11.379 21.4669Z" fill="#02000F"/>
</g>
<defs>
<clipPath id="clip0_392_546">
<rect width="33" height="32" fill="white"/>
</clipPath>
</defs>
</svg>
