<svg width="24" height="18" viewBox="0 0 24 18" fill="none" xmlns="http://www.w3.org/2000/svg">
<g clip-path="url(#clip0_242_187863)">
<path fill-rule="evenodd" clip-rule="evenodd" d="M10.6971 0.331055C10.8238 1.81149 10.4333 4.0051 8.92507 5.97172C8.32636 6.75242 7.56205 7.48399 6.60436 8.11682L23.688 8.07758L23.6953 10.0805L6.12325 10.1241C7.35258 10.7623 8.31529 11.5618 9.05307 12.4406C10.6375 14.3279 11.1145 16.4991 11.0465 17.9846L9.07689 17.9019C9.12369 16.8802 8.78516 15.2161 7.55009 13.7449C6.33654 12.2993 4.18432 10.9552 0.451294 10.6725L0.521204 9.78119L0.518983 9.16685L0.401916 8.17955C4.12005 7.70548 6.21681 6.25229 7.37201 4.74587C8.54761 3.21289 8.81996 1.53306 8.7328 0.514797L10.6971 0.331055Z" fill="#02000F"/>
</g>
<defs>
<clipPath id="clip0_242_187863">
<rect width="24" height="18" fill="white" transform="matrix(-1 0 0 1 24 0)"/>
</clipPath>
</defs>
</svg>
