<svg width="34" height="35" viewBox="0 0 34 35" fill="none" xmlns="http://www.w3.org/2000/svg">
<g clip-path="url(#clip0_1715_2153)">
<path fill-rule="evenodd" clip-rule="evenodd" d="M10.8429 9.67758C11.9053 10.9415 13.9394 12.3543 16.6843 12.6996C17.774 12.8368 18.9567 12.8035 20.2158 12.5389L6.59501 26.098L8.16281 27.6775L22.1756 13.7333C21.6991 15.2126 21.5614 16.6066 21.665 17.8839C21.8873 20.6271 23.2137 22.7124 24.435 23.8255L25.9368 22.1937C25.0968 21.4281 24.0587 19.8514 23.8853 17.7131C23.7149 15.6119 24.371 12.8438 27.1184 9.65205L26.3625 9.00742L25.8816 8.52298L25.1991 7.65416C21.8689 10.2394 19.0592 10.7657 16.9566 10.5011C14.817 10.2318 13.2806 9.12869 12.5499 8.25934L10.8429 9.67758Z" fill="white"/>
</g>
<defs>
<clipPath id="clip0_1715_2153">
<rect width="27" height="20" fill="white" transform="translate(0 20) rotate(-45)"/>
</clipPath>
</defs>
</svg>
