<svg width="70" height="70" viewBox="0 0 70 70" fill="none" xmlns="http://www.w3.org/2000/svg">
<path d="M51.3402 58.5557C54.9615 58.5559 58.4479 57.181 61.0941 54.7088C63.7404 52.2367 65.3491 48.8519 65.5949 45.2389C65.8408 41.626 64.7055 38.0544 62.4185 35.2466C60.1315 32.4388 56.8636 30.6042 53.2757 30.1139C52.9881 30.0761 52.6974 30.154 52.4673 30.3306C52.2372 30.5072 52.0867 30.7679 52.0489 31.0554C52.0111 31.343 52.0891 31.6337 52.2656 31.8638C52.4422 32.0938 52.7029 32.2443 52.9905 32.2822C55.6418 32.6563 58.0954 33.8955 59.9701 35.8074C61.8448 37.7193 63.0356 40.1967 63.3576 42.8549C63.7072 45.8296 62.9411 48.8283 61.2076 51.2708C59.4741 53.7134 56.8964 55.4262 53.973 56.0781C51.0496 56.73 47.9883 56.2745 45.3814 54.7998C42.7744 53.3251 40.8069 50.936 39.8596 48.0945C39.2694 46.2017 39.1663 44.1904 39.56 42.2471C41.6231 31.8328 45.7524 21.9375 51.7039 13.1458C51.7838 13.0263 51.8393 12.8923 51.8673 12.7514C51.8953 12.6106 51.8953 12.4655 51.8673 12.3246C51.8393 12.1837 51.7838 12.0498 51.704 11.9303C51.6242 11.8109 51.5216 11.7083 51.4022 11.6285C51.2828 11.5487 51.1488 11.4932 51.0079 11.4652C50.867 11.4371 50.722 11.4371 50.5811 11.4651C50.2965 11.5217 50.0461 11.689 49.8849 11.9302C43.7684 20.9735 39.5255 31.1505 37.4067 41.8605C36.9471 44.1638 37.077 46.5459 37.7842 48.7856C38.7295 51.6326 40.5483 54.1092 42.982 55.8632C45.4157 57.6172 48.3403 58.5593 51.3402 58.5557Z" fill="#FF833B"/>
<path d="M5.01262 48.786C5.81791 51.2035 7.25508 53.3618 9.17518 55.037C11.0953 56.7122 13.4285 57.8434 15.9329 58.3134C18.4373 58.7834 21.0219 58.5751 23.4188 57.7101C25.8156 56.8451 27.9375 55.3548 29.5645 53.3938C31.1916 51.4327 32.2646 49.0722 32.6723 46.5568C33.0801 44.0415 32.8077 41.4629 31.8835 39.0882C30.9593 36.7136 29.4168 34.6293 27.416 33.0514C25.4151 31.4735 23.0287 30.4594 20.504 30.1142C20.2165 30.0764 19.9257 30.1544 19.6957 30.3309C19.4656 30.5075 19.3151 30.7683 19.2773 31.0558C19.2395 31.3433 19.3174 31.6341 19.494 31.8642C19.6706 32.0942 19.9313 32.2447 20.2189 32.2825C22.8702 32.6567 25.3238 33.8959 27.1985 35.8078C29.0731 37.7196 30.264 40.1971 30.586 42.8553C30.9356 45.83 30.1695 48.8286 28.436 51.2712C26.7025 53.7137 24.1247 55.4266 21.2013 56.0784C18.278 56.7303 15.2167 56.2748 12.6097 54.8001C10.0027 53.3254 8.0353 50.9363 7.08798 48.0949C6.49774 46.202 6.39469 44.1908 6.78837 42.2475C8.85151 31.8331 12.9808 21.9379 18.9323 13.1461C19.0924 12.9049 19.1504 12.61 19.0935 12.3261C19.0366 12.0422 18.8694 11.7925 18.6287 11.6316C18.388 11.4708 18.0933 11.4119 17.8092 11.4679C17.5252 11.524 17.2749 11.6904 17.1133 11.9306C10.9968 20.9739 6.75387 31.1509 4.63505 41.8608C4.1755 44.1642 4.30538 46.5463 5.01262 48.786Z" fill="#FF833B"/>
</svg>
