<svg width="26" height="18" viewBox="0 0 26 18" fill="none" xmlns="http://www.w3.org/2000/svg">
<path fill-rule="evenodd" clip-rule="evenodd" d="M14.3194 0.331055C14.1911 1.81149 14.5865 4.0051 16.1136 5.97172C16.7198 6.75242 17.4936 7.48399 18.4633 8.11682L1.16611 8.07758L1.15869 10.0805L18.9504 10.1241C17.7057 10.7623 16.731 11.5618 15.984 12.4406C14.3797 14.3279 13.8968 16.4991 13.9656 17.9846L15.9598 17.9019C15.9125 16.8802 16.2552 15.2161 17.5057 13.7449C18.7344 12.2993 20.9136 10.9552 24.6933 10.6725L24.6225 9.78119L24.6247 9.16685L24.7433 8.17955C20.9786 7.70548 18.8557 6.25229 17.686 4.74587C16.4957 3.21289 16.22 1.53306 16.3082 0.514797L14.3194 0.331055Z" fill="#02000F"/>
</svg>
