<svg width="24" height="18" viewBox="0 0 24 18" fill="none" xmlns="http://www.w3.org/2000/svg">
<g clip-path="url(#clip0_242_187860)">
<path fill-rule="evenodd" clip-rule="evenodd" d="M13.3029 0.331055C13.1762 1.81149 13.5667 4.0051 15.0749 5.97172C15.6736 6.75242 16.4379 7.48399 17.3956 8.11682L0.312018 8.07758L0.304688 10.0805L17.8767 10.1241C16.6474 10.7623 15.6847 11.5618 14.9469 12.4406C13.3625 14.3279 12.8855 16.4991 12.9535 17.9846L14.9231 17.9019C14.8763 16.8802 15.2148 15.2161 16.4499 13.7449C17.6635 12.2993 19.8157 10.9552 23.5487 10.6725L23.4788 9.78119L23.481 9.16685L23.5981 8.17955C19.88 7.70548 17.7832 6.25229 16.628 4.74587C15.4524 3.21289 15.18 1.53306 15.2672 0.514797L13.3029 0.331055Z" fill="#02000F"/>
</g>
<defs>
<clipPath id="clip0_242_187860">
<rect width="24" height="18" fill="white"/>
</clipPath>
</defs>
</svg>
