<svg width="32" height="32" viewBox="0 0 32 32" fill="none" xmlns="http://www.w3.org/2000/svg">
<path d="M16 11.8963C15.5755 11.8963 15.1606 11.7705 14.8077 11.5346C14.4547 11.2988 14.1796 10.9636 14.0172 10.5715C13.8548 10.1793 13.8123 9.74779 13.8951 9.33147C13.9779 8.91516 14.1823 8.53275 14.4824 8.2326C14.7826 7.93245 15.165 7.72805 15.5813 7.64524C15.9976 7.56243 16.4291 7.60493 16.8213 7.76737C17.2135 7.92981 17.5486 8.20489 17.7845 8.55782C18.0203 8.91076 18.1462 9.3257 18.1462 9.75017C18.1456 10.3192 17.9193 10.8647 17.5169 11.2671C17.1146 11.6695 16.569 11.8958 16 11.8963ZM16 8.4693C15.7466 8.4693 15.4988 8.54446 15.2881 8.68527C15.0774 8.82608 14.9132 9.02622 14.8162 9.26037C14.7192 9.49452 14.6939 9.75217 14.7434 10.0007C14.7928 10.2493 14.9149 10.4776 15.0941 10.6568C15.2734 10.8359 15.5017 10.9579 15.7503 11.0073C15.9989 11.0567 16.2565 11.0313 16.4906 10.9342C16.7247 10.8372 16.9248 10.6729 17.0656 10.4621C17.2063 10.2514 17.2814 10.0036 17.2813 9.75017C17.2808 9.41053 17.1457 9.08493 16.9055 8.84481C16.6653 8.60469 16.3396 8.46964 16 8.4693Z" fill="#02000F"/>
<path d="M8.78875 28.846C8.53705 28.8456 8.28732 28.8017 8.05059 28.7162C7.50759 28.5218 7.06403 28.1196 6.81744 27.5982C6.57085 27.0768 6.5414 26.4788 6.73556 25.9357L11.773 11.4492C11.7915 11.3954 11.8205 11.3458 11.8582 11.3033C11.896 11.2607 11.9417 11.226 11.9929 11.2012C12.0441 11.1763 12.0996 11.1618 12.1564 11.1585C12.2132 11.1551 12.2701 11.163 12.3238 11.1817C12.3776 11.2004 12.4271 11.2295 12.4695 11.2674C12.512 11.3052 12.5466 11.3511 12.5713 11.4023C12.596 11.4536 12.6104 11.5092 12.6135 11.566C12.6167 11.6228 12.6087 11.6796 12.5898 11.7333L7.55113 26.2228C7.49248 26.3856 7.46656 26.5584 7.47487 26.7312C7.48319 26.9041 7.52556 27.0736 7.59956 27.23C7.71009 27.4647 7.88785 27.6613 8.1103 27.7948C8.33274 27.9283 8.58984 27.9928 8.84897 27.9799C9.10809 27.9671 9.35756 27.8776 9.56573 27.7227C9.77389 27.5679 9.93136 27.3547 10.0182 27.1102L14.6646 13.745C14.7052 13.6406 14.7846 13.5559 14.8863 13.5089C14.988 13.4619 15.1039 13.4562 15.2097 13.493C15.3155 13.5297 15.4029 13.6061 15.4535 13.706C15.5042 13.806 15.514 13.9216 15.4811 14.0287L10.8342 27.3969C10.6845 27.82 10.4076 28.1865 10.0414 28.4459C9.67513 28.7054 9.23757 28.8451 8.78875 28.846Z" fill="#02000F"/>
<path d="M23.2121 28.846C22.7641 28.8448 22.3273 28.7055 21.9614 28.447C21.5954 28.1885 21.3181 27.8235 21.1671 27.4017L16.5189 14.0287C16.486 13.9216 16.4958 13.806 16.5465 13.7061C16.5971 13.6061 16.6845 13.5298 16.7903 13.493C16.8961 13.4562 17.012 13.462 17.1137 13.509C17.2154 13.556 17.2948 13.6406 17.3354 13.745L21.9823 27.1137C22.1023 27.4376 22.3453 27.701 22.6585 27.8467C22.9716 27.9925 23.3296 28.0088 23.6547 27.892C23.9798 27.7753 24.2457 27.535 24.3947 27.2234C24.5436 26.9117 24.5636 26.5539 24.4502 26.2276L19.4102 11.7411C19.3913 11.6875 19.3833 11.6306 19.3865 11.5738C19.3896 11.517 19.404 11.4614 19.4287 11.4101C19.4534 11.3589 19.488 11.313 19.5304 11.2752C19.5729 11.2373 19.6224 11.2082 19.6762 11.1895C19.7299 11.1708 19.7868 11.1629 19.8436 11.1663C19.9004 11.1696 19.9559 11.1841 20.0071 11.209C20.0583 11.2338 20.104 11.2685 20.1418 11.3111C20.1795 11.3536 20.2085 11.4032 20.227 11.457L25.2653 25.9383C25.3813 26.267 25.4169 26.6187 25.369 26.964C25.3211 27.3093 25.1912 27.638 24.9902 27.9228C24.7891 28.2075 24.5227 28.4399 24.2134 28.6006C23.904 28.7612 23.5607 28.8453 23.2121 28.846Z" fill="#02000F"/>
<path d="M24.7749 31.1353C24.6888 31.1353 24.6047 31.1097 24.5333 31.0616C24.4619 31.0135 24.4064 30.9452 24.374 30.8654L23.4028 28.4724C23.3617 28.3665 23.3638 28.2487 23.4088 28.1444C23.4538 28.0401 23.538 27.9577 23.6433 27.915C23.7485 27.8723 23.8663 27.8727 23.9713 27.9162C24.0762 27.9596 24.1598 28.0426 24.2041 28.1472L25.1758 30.5403C25.2024 30.6059 25.2125 30.6771 25.2052 30.7476C25.1979 30.8181 25.1733 30.8857 25.1337 30.9445C25.0941 31.0032 25.0407 31.0514 24.9781 31.0846C24.9156 31.1179 24.8458 31.1353 24.7749 31.1353Z" fill="#02000F"/>
<path d="M7.22594 31.1351C7.15511 31.135 7.08538 31.1176 7.02287 31.0843C6.96037 31.051 6.90699 31.0028 6.86745 30.9441C6.82791 30.8853 6.8034 30.8177 6.79609 30.7473C6.78878 30.6768 6.79888 30.6057 6.82551 30.54L7.79675 28.1469C7.83988 28.0406 7.92347 27.9558 8.02914 27.9111C8.1348 27.8664 8.2539 27.8656 8.36021 27.9087C8.46653 27.9518 8.55136 28.0354 8.59604 28.1411C8.64073 28.2467 8.64161 28.3658 8.59848 28.4721L7.62681 30.8652C7.59444 30.945 7.539 31.0133 7.46758 31.0614C7.39617 31.1094 7.31203 31.1351 7.22594 31.1351Z" fill="#02000F"/>
<path d="M16 14.4216C15.0763 14.4216 14.1734 14.1477 13.4053 13.6345C12.6373 13.1213 12.0387 12.3919 11.6852 11.5386C11.3318 10.6852 11.2393 9.74615 11.4195 8.8402C11.5997 7.93426 12.0445 7.1021 12.6976 6.44895C13.3508 5.7958 14.1829 5.351 15.0889 5.17079C15.9948 4.99059 16.9339 5.08308 17.7872 5.43656C18.6406 5.79004 19.37 6.38864 19.8832 7.15666C20.3964 7.92469 20.6703 8.82764 20.6703 9.75133C20.6686 10.9894 20.176 12.1763 19.3005 13.0518C18.425 13.9273 17.2381 14.4199 16 14.4216ZM16 5.94376C15.2474 5.94376 14.5116 6.16694 13.8858 6.58509C13.26 7.00323 12.7723 7.59755 12.4843 8.2929C12.1962 8.98825 12.1209 9.75339 12.2677 10.4916C12.4145 11.2297 12.777 11.9078 13.3092 12.44C13.8414 12.9722 14.5194 13.3346 15.2576 13.4815C15.9958 13.6283 16.7609 13.5529 17.4563 13.2649C18.1516 12.9769 18.7459 12.4891 19.1641 11.8633C19.5822 11.2375 19.8054 10.5018 19.8054 9.74917C19.804 8.74033 19.4027 7.77321 18.6893 7.05985C17.976 6.3465 17.0088 5.94513 16 5.94376Z" fill="#02000F"/>
<path d="M17.3444 6.1616C17.2297 6.1616 17.1197 6.11604 17.0387 6.03494C16.9576 5.95384 16.912 5.84385 16.912 5.72916V2.6377C16.912 2.39583 16.8159 2.16386 16.6449 1.99282C16.4738 1.82179 16.2419 1.7257 16 1.7257C15.7581 1.7257 15.5261 1.82179 15.3551 1.99282C15.1841 2.16386 15.088 2.39583 15.088 2.6377V5.72743C15.088 5.84212 15.0424 5.95211 14.9613 6.03321C14.8802 6.11431 14.7702 6.15987 14.6556 6.15987C14.5409 6.15987 14.4309 6.11431 14.3498 6.03321C14.2687 5.95211 14.2231 5.84212 14.2231 5.72743V2.6377C14.2231 2.16645 14.4103 1.7145 14.7436 1.38127C15.0768 1.04804 15.5287 0.86084 16 0.86084C16.4712 0.86084 16.9232 1.04804 17.2564 1.38127C17.5897 1.7145 17.7769 2.16645 17.7769 2.6377V5.72743C17.7771 5.78437 17.7661 5.84079 17.7444 5.89345C17.7228 5.94612 17.691 5.99399 17.6508 6.03433C17.6106 6.07467 17.5629 6.10668 17.5103 6.12852C17.4577 6.15035 17.4014 6.1616 17.3444 6.1616Z" fill="#02000F"/>
<path d="M25.5325 21.6647H23.1706C23.0559 21.6647 22.9459 21.6191 22.8648 21.538C22.7837 21.4569 22.7382 21.3469 22.7382 21.2322C22.7382 21.1175 22.7837 21.0076 22.8648 20.9265C22.9459 20.8454 23.0559 20.7998 23.1706 20.7998H25.5325C25.6472 20.7998 25.7572 20.8454 25.8383 20.9265C25.9194 21.0076 25.965 21.1175 25.965 21.2322C25.965 21.3469 25.9194 21.4569 25.8383 21.538C25.7572 21.6191 25.6472 21.6647 25.5325 21.6647Z" fill="#02000F"/>
<path d="M8.82941 21.6647H6.46747C6.35278 21.6647 6.24279 21.6191 6.16169 21.538C6.08059 21.4569 6.03503 21.3469 6.03503 21.2322C6.03503 21.1175 6.08059 21.0076 6.16169 20.9265C6.24279 20.8454 6.35278 20.7998 6.46747 20.7998H8.82941C8.9441 20.7998 9.05409 20.8454 9.13519 20.9265C9.21629 21.0076 9.26184 21.1175 9.26184 21.2322C9.26184 21.3469 9.21629 21.4569 9.13519 21.538C9.05409 21.6191 8.9441 21.6647 8.82941 21.6647Z" fill="#02000F"/>
<path d="M19.4785 21.6647H12.5215C12.4068 21.6647 12.2968 21.6191 12.2157 21.538C12.1346 21.4569 12.0891 21.3469 12.0891 21.2322C12.0891 21.1175 12.1346 21.0076 12.2157 20.9265C12.2968 20.8454 12.4068 20.7998 12.5215 20.7998H19.4785C19.5932 20.7998 19.7032 20.8454 19.7843 20.9265C19.8654 21.0076 19.9109 21.1175 19.9109 21.2322C19.9109 21.3469 19.8654 21.4569 19.7843 21.538C19.7032 21.6191 19.5932 21.6647 19.4785 21.6647Z" fill="#02000F"/>
</svg>
