<svg width="32" height="28" viewBox="0 0 32 28" fill="none" xmlns="http://www.w3.org/2000/svg">
<path fill-rule="evenodd" clip-rule="evenodd" d="M26.751 27.2254H5.26773C5.00528 27.2254 4.79907 27.0192 4.79907 26.7568V23.4574C4.79907 23.195 5.00528 22.9888 5.26773 22.9888H26.751C27.0135 22.9888 27.2197 23.195 27.2197 23.4574V26.7568C27.2009 27.0192 26.976 27.2254 26.751 27.2254ZM5.71764 26.3069H26.2824V23.9261H5.71764V26.3069Z" fill="#02000F"/>
<path fill-rule="evenodd" clip-rule="evenodd" d="M26.3949 27.2255C26.2074 27.2255 26.0199 27.0943 25.9449 26.9068C25.87 26.6819 26.0012 26.4194 26.2261 26.3445L30.0504 25.0697L26.2636 23.9262C26.0199 23.8324 25.87 23.5887 25.9449 23.345C26.0199 23.1201 26.2824 22.9514 26.5261 23.0264L31.7001 24.601C31.8688 24.6385 32 24.826 32 25.0135C32 25.2197 31.8688 25.3696 31.7001 25.4446L26.5261 27.188C26.4886 27.2255 26.4324 27.2255 26.3949 27.2255Z" fill="#02000F"/>
<path fill-rule="evenodd" clip-rule="evenodd" d="M4.91155 27.2254H0.449921C0.206218 27.2254 -0.0187378 27.0192 -0.0187378 26.7568V23.4574C-0.0187378 23.195 0.206218 22.9888 0.449921 22.9888H4.91155C5.174 22.9888 5.38021 23.195 5.38021 23.4574C5.38021 23.7011 5.174 23.9261 4.91155 23.9261H0.918579V26.3069H4.91155C5.174 26.3069 5.38021 26.5131 5.38021 26.7755C5.38021 27.038 5.174 27.2254 4.91155 27.2254Z" fill="#02000F"/>
<path fill-rule="evenodd" clip-rule="evenodd" d="M5.54893 21.9767H0.843597C0.581149 21.9767 0.374939 21.7517 0.374939 21.508V4.52383C0.374939 4.26139 0.581149 4.05518 0.843597 4.05518H5.54893C5.81138 4.05518 6.01759 4.26139 6.01759 4.52383V21.5268C6.01759 21.7517 5.81138 21.9767 5.54893 21.9767ZM1.31226 21.0581H5.11776V4.955H1.31226V21.0581Z" fill="#02000F"/>
<path fill-rule="evenodd" clip-rule="evenodd" d="M2.77447 20.533H0.843597C0.581149 20.533 0.374939 20.3268 0.374939 20.0644C0.374939 19.8019 0.581149 19.5957 0.843597 19.5957H2.77447C3.03692 19.5957 3.24313 19.8019 3.24313 20.0644C3.24313 20.3268 3.03692 20.533 2.77447 20.533Z" fill="#02000F"/>
<path fill-rule="evenodd" clip-rule="evenodd" d="M2.11835 19.1082H0.843597C0.581149 19.1082 0.374939 18.902 0.374939 18.6396C0.374939 18.3771 0.581149 18.1709 0.843597 18.1709H2.11835C2.3808 18.1709 2.58701 18.3771 2.58701 18.6396C2.58701 18.902 2.3808 19.1082 2.11835 19.1082Z" fill="#02000F"/>
<path fill-rule="evenodd" clip-rule="evenodd" d="M2.11835 16.2962H0.843597C0.581149 16.2962 0.374939 16.09 0.374939 15.8275C0.374939 15.5651 0.581149 15.3589 0.843597 15.3589H2.11835C2.3808 15.3589 2.58701 15.5651 2.58701 15.8275C2.58701 16.09 2.3808 16.2962 2.11835 16.2962Z" fill="#02000F"/>
<path fill-rule="evenodd" clip-rule="evenodd" d="M2.11835 13.4656H0.843597C0.581149 13.4656 0.374939 13.2594 0.374939 12.997C0.374939 12.7345 0.581149 12.5283 0.843597 12.5283H2.11835C2.3808 12.5283 2.58701 12.7345 2.58701 12.997C2.58701 13.2594 2.3808 13.4656 2.11835 13.4656Z" fill="#02000F"/>
<path fill-rule="evenodd" clip-rule="evenodd" d="M2.11835 10.6351H0.843597C0.581149 10.6351 0.374939 10.4289 0.374939 10.1664C0.374939 9.90396 0.581149 9.69775 0.843597 9.69775H2.11835C2.3808 9.69775 2.58701 9.90396 2.58701 10.1664C2.58701 10.4289 2.3808 10.6351 2.11835 10.6351Z" fill="#02000F"/>
<path fill-rule="evenodd" clip-rule="evenodd" d="M2.11835 7.82306H0.843597C0.581149 7.82306 0.374939 7.61685 0.374939 7.3544C0.374939 7.09195 0.581149 6.88574 0.843597 6.88574H2.11835C2.3808 6.88574 2.58701 7.09195 2.58701 7.3544C2.58701 7.61685 2.3808 7.82306 2.11835 7.82306Z" fill="#02000F"/>
<path fill-rule="evenodd" clip-rule="evenodd" d="M2.77447 17.7025H0.843597C0.581149 17.7025 0.374939 17.4962 0.374939 17.2338C0.374939 16.9713 0.581149 16.7651 0.843597 16.7651H2.77447C3.03692 16.7651 3.24313 16.9713 3.24313 17.2338C3.24313 17.4962 3.03692 17.7025 2.77447 17.7025Z" fill="#02000F"/>
<path fill-rule="evenodd" clip-rule="evenodd" d="M2.77447 14.8719H0.843597C0.581149 14.8719 0.374939 14.6657 0.374939 14.4032C0.374939 14.1408 0.581149 13.9346 0.843597 13.9346H2.77447C3.03692 13.9346 3.24313 14.1408 3.24313 14.4032C3.24313 14.6657 3.03692 14.8719 2.77447 14.8719Z" fill="#02000F"/>
<path fill-rule="evenodd" clip-rule="evenodd" d="M2.77447 12.0599H0.843597C0.581149 12.0599 0.374939 11.8537 0.374939 11.5912C0.374939 11.3288 0.581149 11.1226 0.843597 11.1226H2.77447C3.03692 11.1226 3.24313 11.3288 3.24313 11.5912C3.24313 11.8537 3.03692 12.0599 2.77447 12.0599Z" fill="#02000F"/>
<path fill-rule="evenodd" clip-rule="evenodd" d="M2.77447 9.22882H0.843597C0.581149 9.22882 0.374939 9.02261 0.374939 8.76016C0.374939 8.49771 0.581149 8.2915 0.843597 8.2915H2.77447C3.03692 8.2915 3.24313 8.49771 3.24313 8.76016C3.24313 9.02261 3.03692 9.22882 2.77447 9.22882Z" fill="#02000F"/>
<path fill-rule="evenodd" clip-rule="evenodd" d="M2.77447 6.4173H0.843597C0.581149 6.4173 0.374939 6.21109 0.374939 5.94864C0.374939 5.68619 0.581149 5.47998 0.843597 5.47998H2.77447C3.03692 5.47998 3.24313 5.68619 3.24313 5.94864C3.24313 6.21109 3.03692 6.4173 2.77447 6.4173Z" fill="#02000F"/>
<path fill-rule="evenodd" clip-rule="evenodd" d="M28.3069 21.9955H7.47977C7.21732 21.9955 7.01111 21.7893 7.01111 21.5268V4.46768C7.01111 4.20523 7.21732 3.99902 7.47977 3.99902H25.0826C25.345 3.99902 25.5512 4.20523 25.5512 4.46768C25.5512 4.73013 25.345 4.93634 25.0826 4.93634H7.92968V21.1144H28.3069C29.6192 21.1144 30.7065 20.0084 30.7065 18.7149V17.084C30.7065 16.8215 30.9127 16.6153 31.1751 16.6153C31.4376 16.6153 31.6438 16.8215 31.6438 17.084V18.7149C31.6063 20.5145 30.1253 21.9955 28.3069 21.9955Z" fill="#02000F"/>
<path fill-rule="evenodd" clip-rule="evenodd" d="M21.3333 12.6222H11.2478C10.9104 12.6222 10.6292 12.4535 10.498 12.1723C10.348 11.7974 10.4417 11.31 10.7229 10.9913L15.4845 6.22972C15.8969 5.81731 16.6655 5.81731 17.0967 6.22972L21.8582 10.9913C22.1394 11.2725 22.2707 11.7974 22.1207 12.1723C21.9707 12.4535 21.6708 12.6222 21.3333 12.6222ZM11.304 11.7224H21.2396C21.2396 11.6662 21.2021 11.6474 21.1834 11.6099L21.0896 11.5162L16.4593 6.8671C16.3656 6.77337 16.1593 6.81086 16.1219 6.8671L11.3603 11.6099C11.3228 11.6099 11.3228 11.6662 11.304 11.7224Z" fill="#02000F"/>
<path fill-rule="evenodd" clip-rule="evenodd" d="M21.0522 20.1206H11.5103C11.2478 20.1206 11.0416 19.9144 11.0416 19.652V12.1347C11.0416 11.8722 11.2478 11.666 11.5103 11.666C11.7727 11.666 11.9789 11.8722 11.9789 12.1347V19.1833H20.5835V12.1347C20.5835 11.8722 20.7897 11.666 21.0522 11.666C21.3146 11.666 21.5208 11.8722 21.5208 12.1347V19.652C21.5021 19.9332 21.2959 20.1206 21.0522 20.1206Z" fill="#02000F"/>
<path fill-rule="evenodd" clip-rule="evenodd" d="M18.0902 20.1209C17.8278 20.1209 17.6216 19.9146 17.6216 19.6522V16.3528H14.9409V19.6522C14.9409 19.9146 14.7346 20.1209 14.4722 20.1209C14.2097 20.1209 14.0035 19.9146 14.0035 19.6522V15.8842C14.0035 15.6217 14.2097 15.4155 14.4722 15.4155H18.0902C18.3527 15.4155 18.5589 15.6217 18.5589 15.8842V19.6522C18.5589 19.9334 18.3527 20.1209 18.0902 20.1209Z" fill="#02000F"/>
<path fill-rule="evenodd" clip-rule="evenodd" d="M31.1752 17.5149C30.9127 17.5149 30.7065 17.3087 30.7065 17.0462C30.7065 15.6215 29.563 14.478 28.1383 14.478C26.6948 14.478 25.5325 15.6215 25.5325 17.0462C25.5325 17.3087 25.3263 17.5149 25.0639 17.5149C24.8014 17.5149 24.5952 17.3087 24.5952 17.0462V4.26123C24.5952 2.33036 26.1512 0.774414 28.1008 0.774414C30.0317 0.774414 31.5876 2.33036 31.5876 4.26123V17.0837C31.6063 17.3462 31.4001 17.5149 31.1752 17.5149ZM28.1383 1.67424C26.6948 1.67424 25.5325 2.81776 25.5325 4.26123V14.7404C26.1699 14.0281 27.0885 13.5969 28.1383 13.5969C29.1506 13.5969 30.0879 14.0281 30.7065 14.7404V4.26123C30.7065 2.81776 29.563 1.67424 28.1383 1.67424Z" fill="#02000F"/>
</svg>
