<svg width="70" height="70" viewBox="0 0 70 70" fill="none" xmlns="http://www.w3.org/2000/svg">
<path d="M69.4586 2.62699C69.2125 2.37803 68.7699 2.08105 68.0584 2.08105C67.1474 2.08105 64.3758 2.08105 47.3614 16.6205C40.276 22.675 32.2212 30.0133 25.4004 36.5949C25.3958 36.5994 25.3902 36.6022 25.3857 36.6069C25.3821 36.6106 25.3797 36.6149 25.376 36.6186C23.3997 38.5258 21.5282 40.3686 19.8138 42.0981C9.19644 43.3875 7.81923 50.187 6.70949 55.6644C5.75804 60.3615 5.08053 62.831 1.18837 63.1448C0.593554 63.1928 0.109215 63.6492 0.015965 64.2384C-0.0772848 64.8276 0.245105 65.4198 0.796205 65.6488C1.01587 65.7405 6.24992 67.9188 12.3717 67.9188C12.3725 67.9188 12.373 67.9188 12.3738 67.9188C19.0951 67.9188 27.6481 65.2723 30.4156 52.8819C38.4907 44.6859 48.7845 33.2437 56.7332 23.6241C61.1053 18.3328 64.4651 13.9701 66.7197 10.6572C69.9335 5.93445 70.6502 3.83299 69.4586 2.62699ZM26.2747 39.3452L33.1612 46.315C31.8051 47.7463 30.4856 49.1186 29.224 50.4077L22.232 43.3306C23.5048 42.0536 24.8605 40.7181 26.2747 39.3452ZM12.3738 65.3343C12.3734 65.3343 12.3723 65.3343 12.3719 65.3343C9.76994 65.3343 7.30732 64.8653 5.41325 64.3952C7.95232 62.5713 8.62682 59.2348 9.24209 56.1965C10.3225 50.8634 11.3438 45.8115 19.9365 44.6999L27.8104 52.6851C25.8195 61.0588 20.6293 65.3343 12.3738 65.3343ZM53.6639 23.2755C47.9871 30.0829 41.1637 37.777 34.9336 44.4324L28.1343 37.5504C34.7049 31.2478 42.3036 24.3421 49.0264 18.5966C60.6955 8.62426 65.35 5.78477 67.1033 4.98041C66.3189 6.74591 63.5288 11.4459 53.6639 23.2755Z" fill="#999999"/>
</svg>
