<svg width="85" height="80" viewBox="0 0 85 80" fill="none" xmlns="http://www.w3.org/2000/svg">
<path d="M76.109 60.5695C75.4516 60.5772 75.5238 60.5454 74.6498 60.6063V40.2698C74.6498 38.0934 72.8694 36.3227 70.6811 36.3227H60.6613C60.6559 36.3227 60.6508 36.3218 60.6453 36.3218H49.1072V5.68575L58.5702 14.7832C59.105 15.2975 59.4118 16.0166 59.4118 16.7565V31.7656C59.4118 32.4432 59.9641 32.9925 60.6453 32.9925C61.3266 32.9925 61.8789 32.4432 61.8789 31.7656V16.7565C61.8789 15.3553 61.298 13.993 60.2848 13.019L48.7308 1.91146C48.4711 1.66904 47.9734 1.45148 47.4805 1.6306L26.7533 8.55985V3.78331C26.769 1.69619 24.8861 -0.120365 22.6958 0.00624628C20.6009 0.00624628 18.8964 1.70061 18.8964 3.78331V11.1865L13.4735 12.9994C11.3434 13.7116 9.91219 15.6916 9.91219 17.9268V60.5762C4.42287 60.716 0 65.1975 0 70.69V76.9286C0 78.6223 1.38536 80 3.08816 80H81.1224C82.8253 80 84.2105 78.6222 84.2105 76.9286V68.6269C84.2107 64.1841 80.5763 60.5695 76.109 60.5695ZM76.109 63.0232C79.2159 63.0232 81.7436 65.5371 81.7436 68.6271V69.9141H69.7781V68.6271C69.7809 65.2735 72.7436 62.7326 76.109 63.0232ZM72.1827 40.2698V61.2393C69.3186 62.4829 67.311 65.3254 67.311 68.6269V69.914H49.1072V38.7764H70.6811C71.509 38.7764 72.1827 39.4464 72.1827 40.2698ZM21.3635 3.78331C21.3635 3.05358 21.9612 2.45995 22.6958 2.45995C23.3555 2.3636 24.2438 2.87806 24.2862 3.78331V9.38462L21.3635 10.3617V3.78331ZM9.91235 63.0276V69.9141H2.50625C2.88997 66.1351 6.04442 63.1575 9.91235 63.0276ZM2.46711 76.9288V72.3678H9.91235V77.5465H3.08833C2.74573 77.5465 2.46711 77.2693 2.46711 76.9288ZM12.3795 17.9268C12.3795 16.7467 13.1351 15.7014 14.2597 15.3254L46.6402 4.50028V11.185L19.7369 20.1791C19.0912 20.3949 18.7436 21.0906 18.9607 21.7329C19.1339 22.2456 19.6145 22.5692 20.1298 22.5692C20.2601 22.5692 20.3926 22.5486 20.5231 22.5049L46.6402 13.7738V20.0152L19.7369 29.0092C19.0912 29.2251 18.7436 29.9208 18.9607 30.563C19.1339 31.0757 19.6145 31.3992 20.1298 31.3992C20.2601 31.3992 20.3926 31.3786 20.5231 31.3349L46.6402 22.6037V28.8451L19.7369 37.8392C19.0912 38.055 18.7436 38.7507 18.9607 39.3931C19.1339 39.9057 19.6145 40.2293 20.1298 40.2293C20.2601 40.2293 20.3926 40.2087 20.5231 40.165L46.6402 31.4339V37.5449C46.6402 37.5466 46.6401 37.548 46.6401 37.5497V37.6755L19.7369 46.6693C19.0912 46.8852 18.7436 47.5809 18.9607 48.2231C19.1339 48.7358 19.6145 49.0593 20.1298 49.0593C20.2601 49.0593 20.3926 49.0387 20.5231 48.995L46.6399 40.2638V46.5053L29.841 52.1214C29.1953 52.3371 28.8478 53.0328 29.0649 53.6752C29.2381 54.1879 29.7186 54.5114 30.2339 54.5114C30.3642 54.5114 30.4968 54.4908 30.6272 54.4472L46.6399 49.0938V77.5463H35.9833V64.798C35.9833 63.9624 35.5994 63.1933 34.9302 62.6882C34.2609 62.183 33.4129 62.0221 32.6037 62.2468L21.1222 65.4347C19.8119 65.7985 18.8967 66.9975 18.8967 68.3506V77.5463H12.3795V17.9268ZM21.3639 68.3508C21.3639 68.0943 21.5374 67.8671 21.7856 67.7981L26.2063 66.5706V77.5465H21.3637L21.3639 68.3508ZM28.6734 77.5465V65.8855L33.267 64.6101C33.329 64.5927 33.3869 64.6035 33.4384 64.6426C33.4899 64.6815 33.516 64.7339 33.516 64.7982V77.5465H28.6734ZM49.1072 77.5465V72.3678H67.311V77.5465H49.1072ZM81.7436 76.9288C81.7436 77.2695 81.465 77.5465 81.1225 77.5465H69.7781V72.3678H81.7436V76.9288Z" fill="#1F1F1F"/>
<path d="M20.1298 57.8894C20.2601 57.8894 20.3926 57.8688 20.5231 57.8251L25.103 56.294C25.7487 56.0782 26.0963 55.3825 25.8792 54.7401C25.6621 54.0978 24.9625 53.7519 24.3168 53.9682L19.7369 55.4993C19.0912 55.7151 18.7436 56.4108 18.9607 57.0532C19.1339 57.5656 19.6145 57.8894 20.1298 57.8894Z" fill="#1F1F1F"/>
<path d="M54.5095 48.8954H66.6067C67.7539 48.8954 68.6871 47.9673 68.6871 46.8265V43.8733C68.6871 42.7324 67.7539 41.8042 66.6067 41.8042H54.5095C53.3623 41.8042 52.4292 42.7324 52.4292 43.8733V46.8265C52.4292 47.9673 53.3624 48.8954 54.5095 48.8954ZM54.8963 44.2579H66.22V46.4417H54.8963V44.2579Z" fill="#1F1F1F"/>
<path d="M54.5095 58.2244H66.6067C67.7539 58.2244 68.6871 57.2962 68.6871 56.1553V53.2021C68.6871 52.0612 67.7539 51.1332 66.6067 51.1332H54.5095C53.3623 51.1332 52.4292 52.0613 52.4292 53.2021V56.1553C52.4292 57.2962 53.3624 58.2244 54.5095 58.2244ZM54.8963 53.5869H66.22V55.7707H54.8963V53.5869Z" fill="#1F1F1F"/>
<path d="M54.5095 67.6487H58.5108C59.658 67.6487 60.5912 66.7206 60.5912 65.5798V62.6267C60.5912 61.4857 59.658 60.5575 58.5108 60.5575H54.5095C53.3623 60.5575 52.4292 61.4857 52.4292 62.6267V65.5798C52.4292 66.7206 53.3624 67.6487 54.5095 67.6487ZM54.8963 63.0112H58.1241V65.195H54.8963V63.0112Z" fill="#1F1F1F"/>
</svg>
