<svg width="32" height="32" viewBox="0 0 32 32" fill="none" xmlns="http://www.w3.org/2000/svg">
<path fill-rule="evenodd" clip-rule="evenodd" d="M28.6875 29.75H16C15.75 29.75 15.5625 29.5625 15.5625 29.3125C15.5625 29.0625 15.75 28.875 16 28.875H28.6875C30 28.875 31.125 27.625 31.125 26.125V24.75C31.125 23.25 30 22.0625 28.6875 22.0625C28.4375 22.0625 28.25 21.875 28.25 21.625C28.25 21.375 28.4375 21.1875 28.6875 21.1875C30.5 21.1875 32 22.8125 32 24.75V26.125C32 27.0625 31.625 28 31.0625 28.6875C30.375 29.375 29.5625 29.75 28.6875 29.75Z" fill="#02000F"/>
<path fill-rule="evenodd" clip-rule="evenodd" d="M25.6875 8.625H16C15.75 8.625 15.5625 8.4375 15.5625 8.1875C15.5625 7.9375 15.75 7.75 16 7.75H25.6875C25.9375 7.75 26.125 7.9375 26.125 8.1875C26.125 8.4375 25.9375 8.625 25.6875 8.625Z" fill="#02000F"/>
<path fill-rule="evenodd" clip-rule="evenodd" d="M31.5625 26.5625C31.3125 26.5625 31.125 26.375 31.125 26.125V5.875C31.125 4.375 30 3.125 28.625 3.125H26.125V21.1875H28.875C29.125 21.1875 29.3125 21.375 29.3125 21.625C29.3125 21.875 29.125 22.0625 28.875 22.0625H25.6875C25.4375 22.0625 25.25 21.875 25.25 21.625V2.6875C25.25 2.4375 25.4375 2.25 25.6875 2.25H28.625C30.5 2.25 32 3.875 32 5.875V26.125C32 26.375 31.8125 26.5625 31.5625 26.5625Z" fill="#02000F"/>
<path fill-rule="evenodd" clip-rule="evenodd" d="M16 29.75H3.375C1.5 29.75 0 28.125 0 26.125V24.75C0 23.8125 0.375 22.875 1 22.25C1.625 21.5625 2.4375 21.1875 3.375 21.1875C3.625 21.1875 3.8125 21.375 3.8125 21.625C3.8125 21.875 3.625 22.0625 3.375 22.0625C2 22.0625 0.875 23.25 0.875 24.75V26.125C0.875 27.625 2 28.875 3.375 28.875H16C16.25 28.875 16.4375 29.0625 16.4375 29.3125C16.4375 29.5625 16.25 29.75 16 29.75Z" fill="#02000F"/>
<path fill-rule="evenodd" clip-rule="evenodd" d="M16 8.625H6.3125C6.0625 8.625 5.875 8.4375 5.875 8.1875C5.875 7.9375 6.0625 7.75 6.3125 7.75H16C16.25 7.75 16.4375 7.9375 16.4375 8.1875C16.4375 8.4375 16.25 8.625 16 8.625Z" fill="#02000F"/>
<path fill-rule="evenodd" clip-rule="evenodd" d="M0.4375 26.5625C0.1875 26.5625 0 26.375 0 26.125V5.875C0 3.875 1.5 2.25 3.375 2.25H6.3125C6.5625 2.25 6.75 2.4375 6.75 2.6875V21.625C6.75 21.875 6.5625 22.0625 6.3125 22.0625H3.125C2.875 22.0625 2.6875 21.875 2.6875 21.625C2.6875 21.375 2.875 21.1875 3.125 21.1875H5.875V3.125H3.375C2 3.125 0.875 4.375 0.875 5.875V26.125C0.875 26.375 0.6875 26.5625 0.4375 26.5625Z" fill="#02000F"/>
<path fill-rule="evenodd" clip-rule="evenodd" d="M22.25 18.125H9.75002C9.56252 18.125 9.43752 18 9.37502 17.875C9.25002 17.6875 9.31252 17.5 9.43752 17.375L15.6875 11.125C15.75 11.0625 15.875 11 16 11C16.125 11 16.1875 11.0625 16.3125 11.125L22.5625 17.375C22.6875 17.5 22.6875 17.6875 22.625 17.875C22.5625 18 22.4375 18.125 22.25 18.125ZM10.8125 17.25H21.1875L16 12.0625L10.8125 17.25Z" fill="#02000F"/>
<path fill-rule="evenodd" clip-rule="evenodd" d="M21.5 26.5H10.5625C10.3125 26.5 10.125 26.3125 10.125 26.0625V17.6875C10.125 17.4375 10.3125 17.25 10.5625 17.25C10.8125 17.25 11 17.4375 11 17.6875V25.625H21.0625V17.6875C21.0625 17.4375 21.25 17.25 21.5 17.25C21.75 17.25 21.9375 17.4375 21.9375 17.6875V26.0625C21.9375 26.3125 21.75 26.5 21.5 26.5Z" fill="#02000F"/>
<path fill-rule="evenodd" clip-rule="evenodd" d="M18.4375 26.5C18.1875 26.5 18 26.3125 18 26.0625V22.3125H14V26.0625C14 26.3125 13.8125 26.5 13.5625 26.5C13.3125 26.5 13.125 26.3125 13.125 26.0625V21.875C13.125 21.625 13.3125 21.4375 13.5625 21.4375H18.4375C18.6875 21.4375 18.875 21.625 18.875 21.875V26.0625C18.875 26.3125 18.6875 26.5 18.4375 26.5Z" fill="#02000F"/>
</svg>
