<svg width="32" height="32" viewBox="0 0 32 32" fill="none" xmlns="http://www.w3.org/2000/svg">
<g clip-path="url(#clip0_1036_2288)">
<path d="M22.7415 15.7826L28.6304 9.89378C28.6826 9.83958 28.7238 9.77564 28.749 9.70463L31.8472 0.805733C31.9103 0.62455 31.8641 0.423256 31.7285 0.287666C31.5927 0.152016 31.3913 0.106056 31.2103 0.169258L22.3165 3.27256C22.2459 3.29822 22.1805 3.33899 22.1276 3.39109L16.2388 9.27988L7.60699 0.648048C6.92389 -0.0350876 5.8125 -0.0349655 5.12939 0.648048L0.648193 5.12928C-0.0348511 5.81232 -0.0348511 6.92377 0.648193 7.60682L9.28006 16.2387L2.49182 23.0269L1.01392 24.5048C0.443848 25.0749 0.129883 25.8328 0.129883 26.639C0.129883 27.4452 0.443848 28.2031 1.01392 28.7732L3.24817 31.0075C3.83661 31.5959 4.6095 31.8901 5.38239 31.8901C6.15533 31.8901 6.92822 31.5959 7.51666 31.0075L8.99457 29.5296L15.7828 22.7414L24.393 31.3516C24.7346 31.6932 25.1832 31.8639 25.6318 31.8639C26.0804 31.8639 26.5291 31.6932 26.8706 31.3516L31.3518 26.8704C32.0349 26.1874 32.0349 25.0759 31.3518 24.3928L22.7415 15.7826ZM21.6809 15.429C21.6809 15.429 21.6809 15.429 21.6808 15.4291L15.4292 21.6807C15.4291 21.6808 15.4291 21.6808 15.429 21.6809L10.8035 26.3064L8.61259 24.1154L17.3809 15.3472C17.3998 15.333 17.4183 15.3178 17.4355 15.3006L19.494 13.2421C19.5113 13.2249 19.5264 13.2064 19.5406 13.1874L24.9582 7.76987L25.0736 9.38239C25.0914 9.63038 25.2886 9.82767 25.5366 9.84541L27.1491 9.96079L21.6809 15.429ZM8.64101 28.4689L3.55251 23.3804L5.00792 21.925L7.55159 24.4687C7.5517 24.4688 7.55177 24.4689 7.55188 24.469C7.55199 24.4691 7.55209 24.4692 7.5522 24.4693L10.0964 27.0135L8.64101 28.4689ZM10.3403 16.5926C10.3405 16.5924 10.3406 16.5923 10.3408 16.5922L16.5924 10.3406C16.5926 10.3404 16.5927 10.3402 16.5929 10.34L22.0605 4.87241L22.1757 6.4845C22.1934 6.73252 22.3907 6.92985 22.6388 6.94758L24.251 7.06284L7.90547 23.4083L5.71504 21.2179L10.3403 16.5926ZM27.1059 2.66053L29.3584 4.91302L27.9305 9.01417L26.0401 8.87888L25.8775 6.60651C25.8633 6.36434 25.6566 6.15767 25.4144 6.14347L23.1423 5.98103L23.0072 4.09066L27.1059 2.66053ZM29.7236 3.86399L28.1543 2.2947L30.5625 1.45441L29.7236 3.86399ZM1.35535 6.89973C1.06213 6.60654 1.06213 6.12955 1.35535 5.83637L5.83655 1.35514C5.98309 1.20856 6.17566 1.13526 6.36823 1.13526C6.56073 1.13526 6.7533 1.20856 6.89984 1.35514L7.6949 2.1502L5.98999 3.85514C5.79474 4.05039 5.79474 4.36698 5.98999 4.56223C6.08765 4.65986 6.21564 4.70869 6.34357 4.70869C6.47156 4.70869 6.59949 4.65986 6.69714 4.56223L8.40202 2.85732L10.3795 4.83482L9.61517 5.59916C9.41992 5.79441 9.41992 6.111 9.61517 6.30625C9.71283 6.40388 9.84076 6.45271 9.96875 6.45271C10.0967 6.45271 10.2247 6.40388 10.3223 6.30625L11.0866 5.54194L13.0641 7.51939L11.3592 9.22431C11.1639 9.41956 11.1639 9.73615 11.3592 9.9314C11.4568 10.029 11.5848 10.0779 11.7128 10.0779C11.8408 10.0779 11.9687 10.029 12.0663 9.9314L13.7712 8.22651L15.5317 9.98699L9.98717 15.5315L1.35535 6.89973ZM6.80951 30.3004C6.02271 31.0872 4.74225 31.0873 3.95532 30.3004L1.72107 28.0661C1.33984 27.6849 1.12988 27.1781 1.12988 26.639C1.12988 26.0999 1.33984 25.5931 1.72107 25.2119L2.84538 24.0875L7.93388 29.176L6.80951 30.3004ZM30.6447 26.1633L26.1635 30.6445C25.8704 30.9376 25.3933 30.9377 25.1002 30.6445L16.4899 22.0343L22.0344 16.4897L23.8025 18.2578L22.0976 19.9627C21.9023 20.158 21.9023 20.4746 22.0976 20.6698C22.1953 20.7674 22.3232 20.8163 22.4512 20.8163C22.5792 20.8163 22.7071 20.7674 22.8047 20.6698L24.5096 18.9649L26.4871 20.9424L25.7227 21.7068C25.5275 21.902 25.5275 22.2186 25.7227 22.4139C25.8204 22.5115 25.9483 22.5603 26.0763 22.5603C26.2043 22.5603 26.3322 22.5115 26.4299 22.4139L27.1942 21.6495L29.1717 23.627L27.4668 25.3319C27.2715 25.5272 27.2715 25.8438 27.4668 26.039C27.5645 26.1366 27.6924 26.1855 27.8204 26.1855C27.9484 26.1855 28.0763 26.1366 28.174 26.039L29.8788 24.3341L30.6447 25.0999C30.9379 25.3931 30.9379 25.8701 30.6447 26.1633Z" fill="#02000F"/>
</g>
<defs>
<clipPath id="clip0_1036_2288">
<rect width="32" height="32" fill="white"/>
</clipPath>
</defs>
</svg>
