<svg width="70" height="70" viewBox="0 0 70 70" fill="none" xmlns="http://www.w3.org/2000/svg">
<path d="M6.64627 63.5709H63.3598C66.5608 63.5709 69.1647 60.9688 69.1647 57.7711V12.2346C69.1647 8.92084 66.4568 6.42969 63.3598 6.42969H59.2097C57.2586 6.42969 55.6716 8.01494 55.6716 9.96264V13.9734H14.3288V9.96264C14.3288 8.0148 12.7416 6.42969 10.7906 6.42969H6.64627C3.43666 6.42969 0.835449 9.03322 0.835449 12.2346V57.7711C0.835449 60.9688 3.44199 63.5709 6.64627 63.5709ZM57.338 9.96264C57.338 8.93342 58.1779 8.09615 59.2097 8.09615H63.3598C65.5567 8.09615 67.4983 9.86174 67.4983 12.2346V53.7003C67.4865 53.688 67.4749 53.6756 67.4632 53.6638C66.3585 52.5656 64.9008 51.9602 63.3598 51.9602H59.2097C58.1779 51.9602 57.338 51.123 57.338 50.0937C57.338 39.4128 57.338 19.7618 57.338 9.96264ZM2.50191 12.2346C2.50191 9.94145 4.37154 8.09615 6.64627 8.09615H10.7906C11.8224 8.09615 12.6623 8.93328 12.6623 9.96264V50.0938C12.6623 51.123 11.8224 51.9603 10.7906 51.9603H6.64627C5.0982 51.9603 3.63996 52.5657 2.52994 53.6764C2.52078 53.6861 2.51107 53.696 2.50191 53.7057V12.2346ZM6.64627 53.6268H10.7906C12.7417 53.6268 14.3288 52.0415 14.3288 50.0938V15.64H55.6714V50.0938C55.6714 52.0417 57.2586 53.6268 59.2096 53.6268H63.3597C68.7289 53.6268 68.8868 61.9043 63.3597 61.9043H6.64627C1.13172 61.9043 1.39285 53.6268 6.64627 53.6268Z" fill="#999999"/>
<path d="M36.233 29.3821C35.9316 29.1153 35.4824 29.0995 35.1654 29.3482L23.7923 38.2598C23.5905 38.418 23.4727 38.6601 23.4727 38.9161V52.0383C23.4727 52.4985 23.8456 52.8716 24.306 52.8716H45.6941C46.1543 52.8716 46.5274 52.4987 46.5274 52.0383V38.9161C46.5274 38.6785 46.4258 38.4519 46.2481 38.2937L36.233 29.3821ZM44.8607 51.2052C39.8369 51.2052 26.6972 51.2052 25.1391 51.2052V39.3217L35.645 31.0897L44.8607 39.2899V51.2052Z" fill="#999999"/>
<path d="M20.7165 38.5432L27.1666 33.2812C27.3606 33.123 27.4733 32.8861 27.4733 32.6354V26.3395H29.5415V30.0046C29.5415 30.3275 29.7277 30.6211 30.0201 30.7585C30.313 30.8964 30.6574 30.8528 30.9061 30.6465L35.7886 26.603L49.2586 38.5216C49.6011 38.8243 50.1289 38.7951 50.4349 38.4493C50.7395 38.1049 50.7077 37.5783 50.3626 37.273L36.3589 24.8819C36.0503 24.6091 35.5907 24.6039 35.2757 24.8643L31.2081 28.2326V25.5062C31.2081 25.046 30.8352 24.6729 30.3748 24.6729H26.6401C26.1799 24.6729 25.8068 25.0458 25.8068 25.5062V32.2396L19.6632 37.2517C19.3065 37.5426 19.253 38.0673 19.5441 38.4242C19.8363 38.7822 20.3627 38.8328 20.7165 38.5432Z" fill="#999999"/>
</svg>
