<svg width="32" height="32" viewBox="0 0 32 32" fill="none" xmlns="http://www.w3.org/2000/svg">
<g clip-path="url(#clip0_332_1113)">
<path d="M7.62503 0C7.92503 0.15 7.95003 0.408333 7.95003 0.708333C7.9417 8.34167 7.95003 15.975 7.95003 23.6167C7.95003 23.75 7.95003 23.8833 7.95003 24.05C8.1167 24.05 8.25003 24.05 8.38337 24.05C13.4167 24.05 18.4417 24.05 23.475 24.05C23.9834 24.05 24.2 24.2 24.1917 24.525C24.1834 24.8417 23.9667 24.9833 23.4834 24.9833C18.2334 24.9833 12.9834 24.9833 7.73337 24.9833C7.15003 24.9833 7.00837 24.85 7.00837 24.2667C7.00837 16.6333 7.00837 9 7.00837 1.35833C7.00837 1.225 7.00837 1.09167 7.00837 0.941667C4.97503 0.941667 2.97503 0.941667 0.950033 0.941667C0.950033 1.78333 0.950033 2.60833 0.950033 3.49167C1.33337 3.49167 1.72503 3.49167 2.1167 3.49167C2.2417 3.49167 2.3667 3.48333 2.4917 3.5C2.75837 3.525 2.93337 3.725 2.93337 3.975C2.92503 4.225 2.7417 4.41667 2.47503 4.425C2.0917 4.43333 1.70837 4.425 1.3167 4.43333C1.20003 4.43333 1.0917 4.43333 0.958366 4.43333C0.958366 5.45833 0.958366 6.45833 0.958366 7.5C1.57503 7.5 2.18337 7.5 2.80003 7.5C3.00837 7.5 3.2167 7.49167 3.42503 7.5C3.7417 7.50833 3.9417 7.69167 3.9417 7.96667C3.9417 8.24167 3.75003 8.425 3.43337 8.43333C2.73337 8.44167 2.0417 8.43333 1.3417 8.43333C1.22503 8.43333 1.1167 8.43333 0.975033 8.43333C0.975033 9.45 0.975033 10.45 0.975033 11.5C1.37503 11.5 1.77503 11.5 2.17503 11.5C2.30003 11.5 2.42503 11.4917 2.55003 11.5167C2.80837 11.5667 2.95837 11.7333 2.9417 12C2.92503 12.2667 2.7667 12.425 2.50003 12.4333C2.07503 12.45 1.65003 12.4417 1.2167 12.4417C1.13337 12.4417 1.05837 12.45 0.958366 12.4583C0.958366 13.4667 0.958366 14.4667 0.958366 15.5083C1.0917 15.5083 1.22503 15.5083 1.35837 15.5083C2.02503 15.5083 2.6917 15.5083 3.35837 15.5083C3.7417 15.5083 3.9417 15.675 3.9417 15.9667C3.95003 16.2667 3.7417 16.45 3.35003 16.45C2.67503 16.4583 2.00003 16.45 1.3167 16.45C1.20837 16.45 1.0917 16.45 0.958366 16.45C0.958366 17.475 0.958366 18.475 0.958366 19.5167C1.37503 19.5167 1.80003 19.5167 2.22503 19.5167C2.72503 19.5167 2.93337 19.65 2.9417 19.9667C2.95003 20.3 2.7167 20.4583 2.22503 20.4583C1.80837 20.4583 1.3917 20.4583 0.958366 20.4583C0.958366 21.4833 0.958366 22.475 0.958366 23.525C1.05003 23.525 1.15003 23.525 1.25003 23.525C1.9167 23.525 2.58337 23.525 3.25003 23.525C3.72503 23.525 3.95003 23.675 3.9417 24C3.93337 24.3167 3.7167 24.4583 3.23337 24.4667C2.48337 24.4667 1.73337 24.4667 0.966699 24.4667C0.966699 25.4917 0.966699 26.4917 0.966699 27.5333C1.43337 27.5333 1.90003 27.5333 2.3667 27.5333C2.73337 27.5333 2.9417 27.7 2.9417 28C2.9417 28.2917 2.73337 28.4667 2.3667 28.475C1.90003 28.475 1.43337 28.475 0.958366 28.475C0.958366 29.3417 0.958366 30.1667 0.958366 31.0167C1.7917 31.0167 2.63337 31.0167 3.50837 31.0167C3.50837 30.5333 3.50003 30.05 3.50837 29.5583C3.5167 29.2083 3.75837 28.975 4.05837 29.0417C4.3167 29.1 4.4417 29.275 4.4417 29.5417C4.4417 30.025 4.4417 30.5167 4.4417 31.0167C5.4667 31.0167 6.45837 31.0167 7.50837 31.0167C7.50837 30.8167 7.50837 30.6167 7.50837 30.4167C7.50837 29.9583 7.50003 29.5 7.50837 29.0417C7.5167 28.725 7.70837 28.5333 7.98337 28.5333C8.25837 28.5333 8.43337 28.7333 8.4417 29.0583C8.45003 29.7 8.4417 30.35 8.4417 31.0167C9.4667 31.0167 10.4667 31.0167 11.5084 31.0167C11.5084 30.6 11.5084 30.1917 11.5084 29.775C11.5084 29.675 11.5 29.5667 11.5167 29.4667C11.5584 29.1917 11.7584 29.025 12.0084 29.0417C12.2584 29.0583 12.4334 29.2333 12.4417 29.525C12.45 29.9083 12.4417 30.2917 12.45 30.6833C12.45 30.7917 12.45 30.9083 12.45 31.0333C13.4834 31.0333 14.475 31.0333 15.525 31.0333C15.525 30.5667 15.525 30.1 15.525 29.6333C15.525 29.425 15.5167 29.2167 15.5334 29.0083C15.55 28.725 15.7334 28.55 15.9834 28.5417C16.25 28.5333 16.45 28.7167 16.4584 29.0083C16.475 29.5583 16.4667 30.1083 16.4667 30.6667C16.4667 30.7833 16.4667 30.8917 16.4667 31.025C17.4917 31.025 18.4834 31.025 19.5417 31.025C19.5417 30.6833 19.5417 30.3333 19.5417 29.9833C19.5417 29.825 19.5334 29.6667 19.5417 29.5167C19.5584 29.2333 19.7334 29.0583 19.9834 29.0417C20.25 29.0333 20.45 29.2083 20.4667 29.5C20.4834 29.8333 20.475 30.1667 20.475 30.5C20.475 30.6667 20.475 30.8333 20.475 31.0167C21.5 31.0167 22.5 31.0167 23.5417 31.0167C23.5417 30.475 23.5417 29.9333 23.5417 29.3917C23.5417 29.275 23.5417 29.1583 23.5417 29.05C23.55 28.725 23.725 28.5333 24.0084 28.5333C24.2834 28.5333 24.475 28.725 24.4834 29.0417C24.4917 29.5833 24.4834 30.125 24.4834 30.6667C24.4834 30.775 24.4834 30.8917 24.4834 31.0167C25.5167 31.0167 26.5084 31.0167 27.55 31.0167C27.55 30.5333 27.55 30.0417 27.55 29.5583C27.55 29.225 27.7417 29.0167 28.0334 29.0333C28.3 29.0417 28.475 29.2417 28.4917 29.5667C28.5 29.8083 28.4917 30.0417 28.4917 30.2833C28.4917 30.525 28.4917 30.7583 28.4917 31.0167C29.35 31.0167 30.1834 31.0167 31.0417 31.0167C31.0417 29.0083 31.0417 27.0167 31.0417 24.9667C30.9417 24.9667 30.825 24.9667 30.7167 24.9667C29.2167 24.9667 27.7167 24.9667 26.2167 24.9667C26.0917 24.9667 25.9667 24.9583 25.85 24.925C25.625 24.85 25.4917 24.6583 25.5667 24.4417C25.625 24.2833 25.8 24.1583 25.9417 24.05C25.9917 24.0083 26.1 24.0333 26.1834 24.0333C27.9 24.0333 29.6167 24.0333 31.3417 24.025C31.625 24.025 31.85 24.0917 31.9917 24.35C31.9917 26.8917 31.9917 29.4333 31.9917 31.975C21.325 31.975 10.6584 31.975 -0.00830078 31.975C3.25525e-05 21.3333 3.25525e-05 10.6667 3.25525e-05 0C2.5417 0 5.08337 0 7.62503 0Z" fill="#02000F"/>
<path d="M18.9833 20.4829C16.7333 20.4829 14.4833 20.4829 12.2333 20.4829C11.65 20.4829 11.5166 20.3496 11.5166 19.7662C11.5166 16.2579 11.5166 12.7496 11.5083 9.24122C11.5083 8.90789 11.6083 8.67455 11.875 8.47456C14.1083 6.73289 16.3333 4.98289 18.5583 3.23289C18.9416 2.93289 19.0666 2.93289 19.4333 3.22456C21.6666 4.98289 23.9 6.74122 26.1416 8.48289C26.4 8.68289 26.5 8.90789 26.5 9.22456C26.4916 12.7412 26.4916 16.2662 26.4916 19.7829C26.4916 20.3412 26.35 20.4912 25.7916 20.4912C23.525 20.4829 21.2583 20.4829 18.9833 20.4829ZM25.5333 19.5162C25.5416 19.4412 25.55 19.3912 25.55 19.3412C25.55 16.0329 25.55 12.7162 25.5416 9.40789C25.5416 9.29956 25.4583 9.14956 25.3666 9.08289C23.3083 7.45789 21.2416 5.84122 19.1833 4.20789C19.0416 4.09122 18.95 4.09956 18.8083 4.20789C16.7666 5.83289 14.7083 7.44122 12.6666 9.06622C12.5583 9.14956 12.4666 9.34122 12.4666 9.47456C12.4583 12.7246 12.4583 15.9746 12.45 19.2246C12.45 19.4996 12.55 19.5496 12.7916 19.5496C13.75 19.5412 14.7083 19.5329 15.6666 19.5496C15.95 19.5579 16.0333 19.4829 16.0333 19.1912C16.025 16.8662 16.025 14.5496 16.025 12.2246C16.025 11.6579 16.1583 11.5246 16.725 11.5246C18.2333 11.5246 19.7416 11.5246 21.2583 11.5246C21.8583 11.5246 21.9833 11.6579 21.9833 12.2662C21.9833 14.5579 21.9833 16.8496 21.9833 19.1412C21.9833 19.2662 21.9833 19.3912 21.9833 19.5246C23.1833 19.5162 24.3583 19.5162 25.5333 19.5162ZM21.025 19.5162C21.025 17.1496 21.025 14.8246 21.025 12.4829C20.9583 12.4746 20.9083 12.4579 20.8583 12.4579C19.6416 12.4579 18.425 12.4579 17.2083 12.4496C16.9666 12.4496 16.975 12.5829 16.975 12.7496C16.975 14.9162 16.9833 17.0829 16.975 19.2412C16.975 19.4746 17.0416 19.5412 17.275 19.5412C18.4416 19.5329 19.6083 19.5329 20.775 19.5329C20.85 19.5412 20.925 19.5246 21.025 19.5162Z" fill="#02000F"/>
<path d="M29.5417 3.94141C29.3501 3.94141 29.1834 3.94974 29.0251 3.94141C28.7501 3.92474 28.5751 3.73307 28.5667 3.48307C28.5667 3.23307 28.7417 3.01641 29.0084 3.01641C29.6834 2.99974 30.3584 2.99974 31.0417 3.01641C31.3251 3.02474 31.5167 3.24141 31.5001 3.50807C31.4917 3.75807 31.3001 3.93307 31.0251 3.94974C30.8584 3.95807 30.7001 3.94974 30.5167 3.94974C30.5167 9.15807 30.5167 14.3414 30.5167 19.5581C30.7084 19.5581 30.8834 19.5497 31.0584 19.5581C31.3251 19.5747 31.4834 19.7331 31.5001 19.9997C31.5167 20.2664 31.3584 20.4664 31.1001 20.4747C30.3917 20.4997 29.6834 20.4997 28.9751 20.4747C28.7001 20.4664 28.5334 20.2331 28.5667 19.9747C28.6001 19.7081 28.7584 19.5664 29.0251 19.5497C29.1917 19.5414 29.3584 19.5497 29.5417 19.5497C29.5417 14.3331 29.5417 9.15807 29.5417 3.94141Z" fill="#02000F"/>
</g>
<defs>
<clipPath id="clip0_332_1113">
<rect width="32" height="32" fill="white"/>
</clipPath>
</defs>
</svg>
