<svg width="70" height="70" viewBox="0 0 70 70" fill="none" xmlns="http://www.w3.org/2000/svg">
<g clip-path="url(#clip0_531_743)">
<path d="M39.0014 51.9233H36.9091C36.1407 51.9233 35.5156 52.5487 35.5156 53.3171V59.6211C35.5156 60.3897 36.1407 61.0149 36.9091 61.0149H39.0014C40.9257 61.0149 42.491 59.4506 42.491 57.5275V55.4106C42.491 53.4879 40.9257 51.9233 39.0014 51.9233ZM40.4247 57.5276C40.4247 58.3111 39.7861 58.9486 39.0014 58.9486H37.5819V53.9899H39.0014C39.7861 53.9899 40.4247 54.6274 40.4247 55.4109V57.5276Z" fill="#999999"/>
<path d="M32.0001 51.9233H28.544C27.9733 51.9233 27.5107 52.3859 27.5107 52.9566C27.5107 53.5272 27.9733 53.9898 28.544 53.9898H31.7572V55.4359H28.544C27.9733 55.4359 27.5107 55.8985 27.5107 56.4691C27.5107 57.0398 27.9733 57.5024 28.544 57.5024H31.7572V58.9485H28.544C27.9733 58.9485 27.5107 59.4111 27.5107 59.9817C27.5107 60.5524 27.9733 61.0149 28.544 61.0149H32.0001C33.0056 61.0149 33.8238 60.1966 33.8238 59.1907V53.7474C33.8236 52.7417 33.0056 51.9233 32.0001 51.9233Z" fill="#999999"/>
<path d="M69.9378 58.7681L68.198 52.6617C68.0416 52.1129 67.4702 51.7947 66.9212 51.9512C66.3724 52.1076 66.0544 52.6792 66.2107 53.228L67.4378 57.5348L55.0956 50.6594C55.1001 50.5096 55.0988 42.8181 55.0988 42.8181C55.0988 42.2474 54.6362 41.7849 54.0655 41.7849C53.4949 41.7849 53.0323 42.2474 53.0323 42.8181C53.0323 42.8181 53.0362 50.7193 53.0208 50.8493C52.98 50.8795 47.954 53.6859 47.954 53.6859C46.7427 48.0347 41.9212 43.7083 36.0319 43.2517V40.4399L53.0323 30.9729V38.0804C53.0323 38.651 53.4949 39.1136 54.0655 39.1136C54.6362 39.1136 55.0988 38.651 55.0988 38.0804V29.0042C55.0834 28.4877 54.8124 28.064 54.2855 27.7332L36.032 17.5684V3.54244L39.1963 6.70893C39.3982 6.91082 39.6626 7.01183 39.9272 7.01183C40.1915 7.01183 40.4558 6.91096 40.6576 6.70948C41.0611 6.30612 41.0614 5.65193 40.6581 5.2483L36.1758 0.76305C35.8706 0.451814 35.4423 0.273438 34.9988 0.273438C34.5551 0.273438 34.1386 0.4458 33.8263 0.75854L29.3395 5.24816C28.9362 5.6518 28.9363 6.30598 29.34 6.70934C29.7437 7.11284 30.3978 7.11257 30.8011 6.70893L33.9656 3.54244V17.5683L26.8633 21.5221C26.3648 21.7996 26.1856 22.4289 26.4631 22.9274C26.7407 23.426 27.37 23.6051 27.8684 23.3276L34.9988 19.3582L52.3206 29.0041L34.9989 38.65L17.6774 29.0023L24.2525 25.3149C24.7501 25.0358 24.9274 24.4061 24.6482 23.9084C24.3691 23.4106 23.7395 23.2334 23.2417 23.5126L15.7158 27.7332C15.1975 28.0219 14.901 28.4866 14.9021 29.0079C14.9021 29.0101 14.9025 29.0122 14.9025 29.0142C14.9025 29.0142 14.9009 50.5129 14.9051 50.6595L2.56298 57.5331L3.78701 53.2273C3.94311 52.6784 3.62463 52.1071 3.07569 51.951C2.52703 51.7949 1.95541 52.1133 1.79931 52.6623L0.0620171 58.7738C-0.0562171 59.1982 -0.00427605 59.6429 0.208272 60.0257C0.422324 60.4112 0.787278 60.7 1.20404 60.8163L7.30656 62.5571C7.40129 62.5841 7.4967 62.597 7.5906 62.597C8.04044 62.597 8.45419 62.3009 8.58363 61.847C8.74014 61.2982 8.4222 60.7264 7.87354 60.5699L3.56462 59.3408L15.7905 52.532C15.9217 52.6281 21.7622 55.8941 21.7622 55.8941C21.754 56.0848 21.7492 56.2764 21.7492 56.4692C21.7492 63.7793 27.693 69.7267 34.9991 69.7267C42.3051 69.7267 48.2488 63.7794 48.2488 56.4692C48.2488 56.2766 48.244 56.0849 48.2358 55.8942C48.2358 55.8942 54.0806 52.6274 54.2108 52.5317L66.435 59.3415L62.1284 60.57C61.5796 60.7265 61.2617 61.2983 61.4183 61.8471C61.5478 62.3012 61.9615 62.5971 62.4114 62.5971C62.5053 62.5971 62.6007 62.5843 62.6953 62.5572L68.7983 60.8163C69.2155 60.697 69.5766 60.4092 69.7899 60.0256C70.0035 59.6397 70.0568 59.1952 69.9378 58.7681ZM17.2496 51.0155C17.1002 50.932 17.0209 50.8799 16.9795 50.8495C16.9647 50.7204 16.969 30.9732 16.969 30.9732L33.9656 40.4399V43.2517C28.0764 43.7083 23.2551 48.0345 22.0435 53.6855L17.2496 51.0155ZM34.9988 67.6601C28.8323 67.6601 23.8155 62.6398 23.8155 56.469C23.8155 50.2983 28.8323 45.2779 34.9988 45.2779C41.1654 45.2779 46.1823 50.2983 46.1823 56.469C46.1823 62.6398 41.1654 67.6601 34.9988 67.6601Z" fill="#999999"/>
</g>
<defs>
<clipPath id="clip0_531_743">
<rect width="70" height="70" fill="white"/>
</clipPath>
</defs>
</svg>
