<svg width="16" height="15" viewBox="0 0 16 15" fill="none" xmlns="http://www.w3.org/2000/svg">
<path d="M6.34972 9.75146L6.83942 8.96142C6.95695 8.77207 6.89818 8.52722 6.70884 8.4097C6.52275 8.29217 6.27464 8.35093 6.15711 8.54028L5.66742 9.33033C4.77943 10.7635 3.51275 11.5862 2.18731 11.5862H0.398286C0.176291 11.5862 0 11.7657 0 11.9877C0 12.2097 0.179555 12.3893 0.398286 12.3893H2.19057C3.80004 12.3828 5.31483 11.423 6.34972 9.75146Z" fill="#101111"/>
<path d="M15.8793 2.05999L13.9401 0.117527C13.7834 -0.0391757 13.532 -0.0391757 13.3753 0.117527C13.2186 0.27423 13.2186 0.525607 13.3753 0.68231L14.6355 1.94246C14.6322 1.94246 14.6322 1.94246 14.6289 1.94246H12.7779C11.1717 1.94246 9.65363 2.90226 8.61874 4.57376L8.31839 5.06019C8.20086 5.24954 8.25963 5.49439 8.44897 5.61192C8.51427 5.65109 8.58609 5.67068 8.65791 5.67068C8.79176 5.67068 8.92235 5.60212 8.99743 5.48133L9.29778 4.9949C10.1858 3.56172 11.4524 2.7423 12.7779 2.7423H14.6257C14.6289 2.7423 14.6289 2.7423 14.6322 2.7423L13.3721 4.00245C13.2153 4.15915 13.2153 4.41053 13.3721 4.56723C13.4504 4.64558 13.5516 4.68476 13.6561 4.68476C13.7605 4.68476 13.8617 4.64558 13.9401 4.56723L15.8826 2.62477C16.036 2.46807 16.036 2.21343 15.8793 2.05999ZM15.0272 2.34728C15.0272 2.34401 15.0272 2.34401 15.0272 2.34075C15.0272 2.33748 15.0272 2.33748 15.0272 2.33422L15.0338 2.34075L15.0272 2.34728Z" fill="#101111"/>
<path d="M13.372 14.2076C13.4503 14.286 13.5515 14.3252 13.656 14.3252C13.7605 14.3252 13.8617 14.286 13.94 14.2076L15.8825 12.2652C16.0392 12.1085 16.0392 11.8571 15.8825 11.7004L13.94 9.7612C13.7833 9.60449 13.5319 9.60449 13.3752 9.7612C13.2185 9.9179 13.2185 10.1693 13.3752 10.326L14.6354 11.5861C14.6321 11.5861 14.6321 11.5861 14.6289 11.5861H12.8366C11.5144 11.5861 10.2444 10.7634 9.35646 9.33026L6.41175 4.57368C5.37686 2.89892 3.8588 1.94238 2.2526 1.94238H0.398286C0.176291 1.94238 0 2.12194 0 2.34393C0 2.56593 0.179555 2.74548 0.398286 2.74548H2.24934C3.57152 2.74548 4.84146 3.56817 5.72944 4.99809L8.67415 9.75467C9.70904 11.4294 11.2271 12.3892 12.8333 12.3892H14.6256C14.6289 12.3892 14.6289 12.3892 14.6321 12.3892L13.372 13.6494C13.2185 13.7996 13.2185 14.0509 13.372 14.2076ZM15.0271 11.9779L15.0337 11.9844L15.0271 11.9909C15.0271 11.9877 15.0271 11.9877 15.0271 11.9844C15.0271 11.9812 15.0271 11.9812 15.0271 11.9779Z" fill="#101111"/>
</svg>
