<svg width="102" height="57" viewBox="0 0 102 57" fill="none" xmlns="http://www.w3.org/2000/svg">
<g clip-path="url(#clip0_575_963)">
<path d="M14.65 18.9966C10.57 22.1699 6.86092 25.8566 4.12546 30.2899C1.57546 34.3966 -0.418174 39.4832 0.0918258 44.4299C0.323644 46.6232 1.0191 48.8632 2.82728 50.2632C4.82092 51.8032 7.51001 51.6166 9.78183 50.8699C14.2327 49.3299 17.9418 46.0166 20.7236 42.2832C22.2536 40.1832 23.5518 37.8966 24.6182 35.5166C24.85 35.0032 25.0355 33.9766 25.5918 33.9766C26.3336 33.9299 27.0755 33.7899 27.7709 33.6032C29.3473 33.1832 30.8309 32.5766 32.2218 31.8299C32.2218 32.8566 32.4536 34.0699 33.4736 34.5366C34.54 35.0499 35.8382 34.6766 36.7655 34.0699C39.0373 32.7166 40.1964 30.1499 42.1436 28.4699C41.6336 29.6832 40.0573 31.2699 40.7991 32.7166C41.6336 34.3032 44.5546 32.1566 45.3891 31.5499C44.9718 32.6699 44.3227 33.7432 43.9982 34.9099C43.72 35.9366 44.3227 36.9632 45.4355 36.2166C45.3891 36.9632 45.5282 38.4099 46.5482 38.3166C47.3364 38.2699 47.9855 37.6166 48.4955 37.1032C49.84 35.6566 50.5818 33.8366 51.2773 32.0166C51.1382 32.8099 50.9064 33.7432 51.0918 34.5366C51.4164 35.9366 52.6218 34.9566 53.0855 34.2566C53.6418 33.3232 54.0591 32.2499 54.4764 31.2699C54.8009 30.4766 55.2646 28.8899 56.0991 28.4699C56.0991 29.4032 55.7282 30.2899 55.45 31.1766C55.3109 31.5966 54.5691 33.2299 55.4036 33.3699C56.0991 33.5099 56.7946 32.4832 57.0727 31.9699C57.4436 31.2699 57.5827 30.4766 58 29.7766C57.8146 30.4299 57.1655 31.7832 57.9536 32.2499C58.6955 32.7166 59.53 31.7366 59.9936 31.2699C61.3846 29.7766 62.2191 27.9099 63.5173 26.3699C62.9609 27.8166 61.3846 31.1766 63.3318 32.2032C65.8818 33.5566 68.1536 29.0299 69.22 27.4899C69.2664 28.6099 69.4518 30.5699 71.0746 29.7299C72.6973 28.9366 73.8564 27.0232 74.9691 25.7166C74.7373 27.3032 75.4327 28.7032 77.2409 28.2366C79.3273 27.6766 80.3009 25.7166 81.97 24.5966C81.8773 25.5299 81.0891 27.7699 82.7582 27.8632C84.3346 27.9566 85.2155 26.2299 86.4673 25.6232C86.5136 27.8632 88.4146 26.3699 89.4345 25.6232C89.4345 28.8899 96.0182 25.2966 97.2236 24.7832C98.2436 24.3166 99.2636 23.7566 100.33 23.4766C100.84 23.3366 101.025 23.4299 101.535 23.5699C102.138 23.7566 102.277 22.9632 101.814 22.6832C100.655 22.0299 98.6146 23.1032 97.5018 23.5699C95.8791 24.2699 94.3491 25.0632 92.68 25.6699C92.1236 25.8566 91.15 26.3232 90.5009 26.0432C89.9909 25.8099 90.5936 25.0632 90.5009 24.6899C90.3618 23.8032 89.2491 24.6432 88.9246 24.8766C88.6464 25.0632 87.3482 25.7632 87.3946 26.0432C87.3482 25.5766 87.58 24.9232 87.1164 24.5966C86.7918 24.3632 86.4209 24.4566 86.0964 24.6432C85.4936 25.0166 85.03 25.6232 84.4736 26.0432C84.1027 26.3232 83.4073 26.9766 82.8973 26.8832C82.1091 26.7432 83.2218 24.5032 83.1291 24.0366C82.7582 21.8899 79.2809 25.8099 78.8636 26.1832C78.2146 26.7432 77.2873 27.4899 76.3136 27.3966C75.5718 27.3032 75.7573 26.3232 75.85 25.8099C75.9891 25.2499 76.1746 24.6899 76.4527 24.1766C76.6845 23.8032 76.3136 23.3366 75.8964 23.4766C75.34 23.6632 74.7836 24.5032 74.4127 24.9232C73.5782 25.8566 72.8364 26.8366 71.9555 27.7699C71.9091 27.8166 70.4255 29.1699 70.3327 29.0299C70.0546 28.3766 70.5646 25.9966 69.5446 25.8566C68.8955 25.7632 67.8755 27.9099 67.5509 28.3766C67.18 28.8899 64.3982 32.7166 63.7027 31.1766C63.3782 30.5232 63.61 29.5432 63.7955 28.8899C63.9346 28.2832 64.1664 27.6766 64.3982 27.1166C64.6764 26.4632 65.4182 25.2499 65.2791 24.5032C65.0009 22.9166 62.3118 26.5099 62.0336 26.8832C61.0136 28.3299 59.9473 30.0099 58.6491 31.2232C58.7418 30.5232 59.6691 28.9366 59.0664 28.3299C58.3246 27.4899 57.1655 29.2632 56.9336 29.8232C57.1191 29.0766 57.49 27.5832 56.3309 27.3966C55.6355 27.2566 55.0791 28.0966 54.7546 28.5632C53.6418 30.2432 53.1318 32.2499 52.1582 34.0232C52.1582 32.5766 52.5291 31.1299 52.9 29.7766C53.0391 29.2166 54.1055 26.5566 53.0391 26.4632C52.2509 26.3699 51.4164 28.9832 51.1846 29.5432C50.6282 30.8966 50.1182 32.2966 49.5155 33.6499C49.0518 34.6299 48.5418 35.6566 47.8464 36.4966C47.4291 36.9632 46.6409 37.8499 46.6873 36.7766C46.6873 36.1232 46.78 35.4699 46.8727 34.8166C46.9191 34.4432 46.7336 34.1166 46.3164 34.1166C45.8527 34.1166 45.4818 34.9566 45.1573 35.2366C45.4355 34.3032 45.8991 33.3699 46.27 32.4832C46.5482 31.8766 47.4291 30.3366 46.8264 29.7766C46.3164 29.3099 44.8791 30.7099 44.4155 31.0366C43.6273 31.5499 42.7464 32.1566 41.8191 32.2966C41.7264 31.1766 42.7464 30.0566 43.21 29.0766C43.3955 28.6566 43.72 27.9099 43.5346 27.4899C43.3027 26.9299 42.5609 27.2099 42.19 27.4432C40.3818 28.4699 39.2227 30.6632 37.7855 32.1099C36.7191 33.1832 33.8909 35.0499 33.52 32.4366C33.4273 32.0166 33.3346 31.4566 33.7055 31.2232C34.2155 30.9432 34.6791 30.6166 35.1891 30.3366C36.3018 29.6366 37.3682 28.8899 38.3882 28.0966C42.0973 25.2499 45.8064 21.6099 47.7073 17.2232C49.1446 13.9099 49.2836 9.70991 45.5282 7.98324C40.7064 5.78991 35.05 8.16991 30.5064 9.94324C30.6455 8.40324 30.7846 6.86324 30.9236 5.32324C30.9236 4.34324 30.97 3.54991 31.0627 2.70991C31.0627 2.33657 31.3873 1.21657 31.1091 0.889907C30.6455 0.423241 30.4136 1.07657 30.3673 1.40324C30.2282 2.24324 30.1355 3.03657 29.9964 3.87657C29.7646 5.55657 29.5327 7.18991 29.3009 8.86991C29.2546 9.24324 29.2082 9.56991 29.1618 9.94324C29.1155 10.4566 28.93 10.3632 28.5127 10.5499C27.8173 10.8766 27.1218 11.2032 26.4264 11.5299C25.0355 12.2299 23.6446 12.9299 22.3464 13.7232C19.6109 15.3099 17.0609 17.0832 14.65 18.9966ZM9.50364 49.4232C7.55637 50.1699 5.14546 50.4966 3.38364 49.1432C1.71455 47.8832 1.15819 45.6899 1.06546 43.6832C0.833644 39.1099 2.59546 34.5366 4.96001 30.7099C7.60274 26.4632 11.1727 22.8232 15.1136 19.7432C19.3791 16.4299 24.0618 13.5832 28.9764 11.3899C28.7909 12.7899 28.6055 14.2366 28.3736 15.6366C28.2809 16.3366 28.1418 17.0366 28.0491 17.7366C28.0027 18.1099 27.91 18.4366 27.8636 18.8099C27.7709 19.2766 27.8636 19.8366 27.3536 19.9299C24.9891 20.4432 22.7173 21.7499 21.0946 23.6166C19.7036 25.2032 18.5909 27.3966 19.0082 29.5899C19.4718 31.8299 21.5118 33.5099 23.6909 33.8832C20.9091 40.4632 16.3655 46.8099 9.50364 49.4232ZM24.1546 32.8099C21.28 32.4366 19.3791 29.8232 20.2136 26.9299C21.1409 23.8966 24.4791 21.6566 27.4464 21.0032C26.6582 25.0166 25.6382 28.9832 24.1546 32.8099ZM27.0755 28.7499C27.8173 26.1366 28.42 23.4766 28.93 20.7699C31.1091 20.6766 32.8246 21.9366 33.01 24.1766C33.2418 26.1366 32.5927 28.0966 32.3146 30.0099C32.2682 30.4299 32.3609 30.5232 31.99 30.7099C31.7118 30.8499 31.4336 30.9899 31.1555 31.1299C30.5991 31.4099 29.9964 31.6899 29.3936 31.9232C28.2346 32.3899 26.9827 32.7166 25.6846 32.7632C26.1946 31.5032 26.6582 30.1499 27.0755 28.7499ZM32.8246 9.89657C36.07 8.72991 39.7791 7.51657 43.2564 8.16991C44.5546 8.44991 45.8527 9.00991 46.7336 10.0832C47.8464 11.4366 47.8464 13.1166 47.3827 14.7032C46.4555 17.9699 44.1836 20.9566 41.8655 23.3366C39.3618 25.9499 36.4409 28.0966 33.4273 29.9632C33.7518 27.6299 34.54 24.9699 33.7055 22.6366C33.01 20.7232 31.0627 19.8366 29.1155 19.7899C29.44 17.8766 29.7182 16.0099 29.95 14.0966C30.0891 13.1632 30.1818 12.1832 30.2746 11.2499C30.3209 10.6899 30.7846 10.6899 31.2482 10.5032C31.7582 10.2699 32.2682 10.0832 32.8246 9.89657ZM69.7764 38.5499C72.28 37.6166 74.9227 36.9166 77.3336 35.7032C78.0291 35.3299 79.1882 34.6299 79.5127 33.8366C79.8836 32.8566 78.8636 32.4832 78.1218 32.3899C75.6182 32.0632 73.1145 32.5299 70.6573 33.1366C67.8291 33.8366 65.0009 34.5832 62.1727 35.3299C56.4236 36.8232 50.7673 38.5499 45.2036 40.5099C42.5146 41.4432 39.7327 42.3299 37.09 43.4499C36.4873 43.7299 35.8846 44.0099 35.2818 44.3366C35.2355 44.3832 33.9836 45.1766 34.4936 45.1299C35.9773 45.0366 37.4146 44.7566 38.8055 44.3366C42.0509 43.4032 45.2036 42.1432 48.4027 41.0699C51.6946 39.9499 54.9864 38.9232 58.3246 37.9432C61.6164 37.0099 64.9082 36.1232 68.2464 35.3299C71.3527 34.6299 74.6445 33.5566 77.8436 33.8366C76.9627 34.5366 75.85 34.9099 74.83 35.3766C73.4391 35.9832 72.0482 36.4966 70.6573 37.0099C67.9218 38.0366 65.1864 39.0166 62.4509 40.0432C56.8873 42.1432 51.2773 44.1499 45.76 46.4832C44.4155 47.0432 43.1173 47.6032 41.7727 48.2099C41.3555 48.3966 38.4809 49.2366 39.4082 50.0299C39.7327 50.3099 40.66 50.0299 41.0773 49.9832C41.7727 49.8899 42.4218 49.7966 43.1173 49.7032C44.5546 49.4699 46.0382 49.1432 47.4291 48.8166C50.2109 48.1632 52.9464 47.4166 55.6818 46.7166C56.98 46.3899 58.2782 46.1566 59.5764 45.8299C60.7818 45.5499 61.8946 45.1299 63.1 44.8966C64.0736 44.6632 65.14 44.5699 66.0673 44.8966C63.6564 46.4366 60.6427 47.0899 57.9073 47.8832C56.3773 48.3032 54.8473 48.8166 53.41 49.4699C52.6218 49.8432 51.0918 50.3099 50.6746 51.2432C49.8864 53.0166 53.2709 52.6432 54.0127 52.5499C55.9136 52.2232 57.7682 51.4766 59.7155 51.3366C58.5564 52.4566 56.8873 52.9232 55.4036 53.4832C54.6618 53.7632 53.92 54.0899 53.2246 54.5099C53.0391 54.6499 52.9464 54.8832 52.9927 55.1166C53.0855 55.5366 53.6882 55.4899 54.0127 55.4899C54.4764 55.4899 54.94 55.4432 55.4036 55.4899C55.3573 55.7699 55.4036 56.1432 55.6355 56.3766C55.8673 56.6099 57.4436 57.3099 57.3973 56.5166C57.3973 56.2832 57.0264 56.2832 56.8873 56.1432C56.7018 56.0032 56.6091 55.8166 56.5627 55.5832C56.3773 54.9766 56.2382 54.5566 55.5891 54.4632C56.9336 53.9499 58.3709 53.5299 59.5764 52.7366C60.1791 52.3166 62.08 50.7299 60.4109 50.3099C59.1127 49.9832 57.6291 50.4966 56.3773 50.8232C54.94 51.2432 53.41 51.6632 51.9264 51.4766C53.41 50.3566 55.4036 49.7966 57.1655 49.2832C59.2055 48.6766 61.3382 48.2099 63.3318 47.5099C64.5836 47.0899 66.3918 46.6699 67.2727 45.5499C68.1073 44.4299 66.9946 43.8232 66.0209 43.6832C64.8155 43.4966 63.6564 43.6366 62.4509 43.9166C60.3182 44.3832 58.1855 44.9899 56.0527 45.5032C51.6946 46.5766 47.3827 48.0699 42.9318 48.8166C51.8336 45.0832 60.7818 41.8166 69.7764 38.5499Z" fill="white"/>
</g>
<defs>
<clipPath id="clip0_575_963">
<rect width="102" height="56" fill="white" transform="translate(0 0.75)"/>
</clipPath>
</defs>
</svg>
