<svg width="38" height="41" viewBox="0 0 38 41" fill="none" xmlns="http://www.w3.org/2000/svg">
<g clip-path="url(#clip0_242_187901)">
<path d="M16.15 0.5C18.031 0.5 19.912 0.5 21.85 0.5C21.85 5.84286 21.85 11.1857 21.85 16.6905C25.8323 13.8745 25.8323 13.8745 29.8076 11.0487C33.9889 8.11905 33.9889 8.11905 36.1 8.11905C36.727 9.69048 37.354 11.2619 38 12.881C30.476 16.6524 30.476 16.6524 22.8 20.5C27.816 23.3286 32.832 26.1571 38 29.0714C37.373 30.6429 36.746 32.2143 36.1 33.8333C30.7506 30.9756 25.7632 27.9401 20.9 24.3095C21.3702 32.3238 21.3702 32.3238 21.85 40.5C20.2825 40.5 18.715 40.5 17.1 40.5C17.1 35.1571 17.1 29.8143 17.1 24.3095C16.1619 24.997 15.2239 25.6845 14.2574 26.3929C13.028 27.2859 11.7985 28.1788 10.5687 29.0714C9.95032 29.5257 9.33189 29.9799 8.69473 30.4479C4.01523 33.8333 4.01523 33.8333 1.9 33.8333C1.273 32.2619 0.646 30.6905 0 29.0714C5.016 26.2429 10.032 23.4143 15.2 20.5C10.184 17.9857 5.168 15.4714 0 12.881C0.627 11.3095 1.254 9.7381 1.9 8.11905C5.94728 8.67142 8.88403 11.0942 12.1125 13.4167C12.9703 14.0234 12.9703 14.0234 13.8455 14.6425C15.2506 15.6375 16.6508 16.6395 18.05 17.6429C17.7365 17.0143 17.423 16.3857 17.1 15.7381C16.8793 13.1546 16.7016 10.5879 16.5656 8C16.5246 7.28181 16.4836 6.56362 16.4413 5.82366C16.3405 4.04932 16.2448 2.27468 16.15 0.5Z" fill="#232426"/>
</g>
<defs>
<clipPath id="clip0_242_187901">
<rect width="38" height="40" fill="white" transform="translate(0 0.5)"/>
</clipPath>
</defs>
</svg>
