<svg width="80" height="84" viewBox="0 0 80 84" fill="none" xmlns="http://www.w3.org/2000/svg">
<g clip-path="url(#clip0_280_753)">
<path d="M34 0C37.96 0 41.92 0 46 0C46 11.22 46 22.44 46 34C54.3837 28.0864 54.3837 28.0864 62.7529 22.1523C71.5556 16 71.5556 16 76 16C77.32 19.3 78.64 22.6 80 26C64.16 33.92 64.16 33.92 48 42C58.56 47.94 69.12 53.88 80 60C78.68 63.3 77.36 66.6 76 70C64.738 63.9987 54.2383 57.6243 44 50C44.99 66.83 44.99 66.83 46 84C42.7 84 39.4 84 36 84C36 72.78 36 61.56 36 50C34.0252 51.4437 32.0503 52.8875 30.0156 54.375C27.4274 56.2505 24.8389 58.1255 22.25 60C20.948 60.9539 19.6461 61.9078 18.3047 62.8906C8.45312 70 8.45312 70 4 70C2.68 66.7 1.36 63.4 0 60C10.56 54.06 21.12 48.12 32 42C21.44 36.72 10.88 31.44 0 26C1.32 22.7 2.64 19.4 4 16C12.5206 17.16 18.7032 22.2478 25.5 27.125C27.306 28.3992 27.306 28.3992 29.1484 29.6992C32.1066 31.7887 35.0543 33.8929 38 36C37.34 34.68 36.68 33.36 36 32C35.5355 26.5748 35.1613 21.1845 34.875 15.75C34.7886 14.2418 34.7023 12.7336 34.6133 11.1797C34.401 7.45356 34.1995 3.72683 34 0Z" fill="#232426"/>
</g>
<defs>
<clipPath id="clip0_280_753">
<rect width="80" height="84" fill="white"/>
</clipPath>
</defs>
</svg>
