<svg width="16" height="16" viewBox="0 0 16 16" fill="none" xmlns="http://www.w3.org/2000/svg">
<path d="M6.92773 0C7.67023 0 8.41273 0 9.17773 0C9.17773 2.13714 9.17773 4.27429 9.17773 6.47619C10.7497 5.34979 10.7497 5.34979 12.3189 4.21949C13.9694 3.04762 13.9694 3.04762 14.8027 3.04762C15.0502 3.67619 15.2977 4.30476 15.5527 4.95238C12.5827 6.46095 12.5827 6.46095 9.55273 8C11.5327 9.13143 13.5127 10.2629 15.5527 11.4286C15.3052 12.0571 15.0577 12.6857 14.8027 13.3333C12.6911 12.1902 10.7224 10.9761 8.80273 9.52381C8.98836 12.7295 8.98836 12.7295 9.17773 16C8.55898 16 7.94023 16 7.30273 16C7.30273 13.8629 7.30273 11.7257 7.30273 9.52381C6.93245 9.79881 6.56217 10.0738 6.18066 10.3571C5.69538 10.7144 5.21002 11.0715 4.72461 11.4286C4.48049 11.6103 4.23638 11.792 3.98486 11.9792C2.1377 13.3333 2.1377 13.3333 1.30273 13.3333C1.05523 12.7048 0.807734 12.0762 0.552734 11.4286C2.53273 10.2971 4.51273 9.16571 6.55273 8C4.57273 6.99429 2.59273 5.98857 0.552734 4.95238C0.800234 4.32381 1.04773 3.69524 1.30273 3.04762C2.90034 3.26857 4.05959 4.23767 5.33398 5.16667C5.67261 5.40938 5.67261 5.40938 6.01807 5.65699C6.57272 6.05499 7.12542 6.45579 7.67773 6.85714C7.55398 6.60571 7.43023 6.35429 7.30273 6.09524C7.21564 5.06186 7.14547 4.03515 7.0918 3C7.0756 2.71272 7.05941 2.42545 7.04272 2.12946C7.00293 1.41973 6.96514 0.709872 6.92773 0Z" fill="#02000F"/>
</svg>
